<?xml version="1.0" encoding="utf-8"?>
<!-- Generator: Adobe Illustrator 21.0.2, SVG Export Plug-In . SVG Version: 6.00 Build 0)  -->
<svg version="1.1" id="Layer_1" xmlns="http://www.w3.org/2000/svg" xmlns:xlink="http://www.w3.org/1999/xlink" x="0px" y="0px"
	 viewBox="0 0 800 800" style="enable-background:new 0 0 800 800;" xml:space="preserve">
<style type="text/css">
	.st0{fill:#F8BD9E;}
	.st1{fill:#162B29;}
	.st2{opacity:0.1;enable-background:new    ;}
	.st3{fill:#216A61;}
	.st4{fill:#FFB9B9;}
	.st5{fill:#4D8787;}
	.st6{fill:#2D403E;}
	.st7{fill:#F2F2F2;}
</style>
<polygon class="st0" points="57.3,489.6 39,488.4 45.1,515.9 65.9,507.3 "/>
<polygon class="st1" points="225.5,438.2 182.7,396.7 158.2,415.6 109.9,473.7 115.4,482.3 174.1,442.5 213.9,494.5 251.8,475.5 "/>
<polygon class="st2" points="225.5,438.2 182.7,396.7 158.2,415.6 109.9,473.7 115.4,482.3 174.1,442.5 213.9,494.5 251.8,475.5 "/>
<path class="st0" d="M229.2,465.8l-5.5,4.3L179,454.8l-10.4-4.3l-20.8,4.3c0,0,0-17.1,19.6-16.5l20.2,4.9l23.8,1.8L229.2,465.8z"/>
<polygon class="st1" points="268.9,511 255.5,519.6 239.6,519.6 165.6,492 57.3,511.6 54.3,488.4 153.3,445 240.2,473.7 "/>
<path class="st0" d="M182.1,402.2l-9.2,1.8l-2-2.3c-3.2-3.8-3.9-9.1-1.7-13.6l0,0l25.7-33.6c0,0,7.3-16.5,19-9.8
	c11.6,6.7-9.8,17.7-9.8,17.7l-12.8,20.2l1.2,10.4L182.1,402.2z"/>
<circle class="st0" cx="240.2" cy="338.6" r="23.8"/>
<path class="st0" d="M229.5,356l11,26.3l26.3-11c0,0-8.6-20.8-8.6-21.4C258.2,349.3,229.5,356,229.5,356z"/>
<path class="st3" d="M301.9,433.8c0,14.4-2.3,28.7-6.7,42.4l-1.8,5.5l-8.6,39.1l-9.2,2.4l-6.7-8.6l-13.5-9.8l-9.8-15.9l-8.4-14
	l-2.6-4.4l-9.2-45.9l-34.9-19.6l-11.6-1.8l2.4-6.7l10.4-14.1l10.4-1.2l3.1-2.4l2.4,1.2l9.8-5.5l3.1,1.2l17.9,1.7l10.9-2.3l15.6-8.4
	l6.4,1l22,18.3C299,401.5,301.9,417.6,301.9,433.8z"/>
<path class="st1" d="M44.6,499.1c0,0,5.5-9.3,3.2-10.4c-2.3-1.1-12.1-5.4-12.1-5.4l-14.4-4.8c0,0-20.8-30.9-21.2-4
	s15.1,33.3,15.1,33.3s13.9,29.9,21.8,25.2s15.8-21,15.8-21S38.5,504.4,44.6,499.1z"/>
<polygon class="st2" points="295.2,428.5 272,443.7 237.3,475 234.7,470.6 227.3,434 229.2,434 248.1,399.1 "/>
<polygon class="st3" points="248.1,395.4 229.2,430.3 222.4,430.3 218.2,442.5 208.4,445 234.7,473.7 272,440.1 295.2,424.8 "/>
<path class="st1" d="M221.6,320.8l-2.6,1c-1.6-1.1-2.1-3.4-1-5c0,0,0,0,0-0.1l-4.8-0.2c12-15.9,34.6-19.1,50.5-7.2
	c1.2,0.9,2.3,1.8,3.3,2.8c0.2-0.7,2.6,0.7,3.6,2.2c0.3-1.2,2.5,4.7,3.3,8.8c0.4-1.4,1.8,0.9,0.5,3c0.8-0.1,1.1,1.9,0.5,3
	c0.8-0.4,0.7,2-0.2,3.6c1.2-0.1-9.6,16.6-13.9,26.4c-1.3-5.8-2.7-11.9-6.8-16.3c-0.7-0.7-1.5-1.4-2.2-2.1l-4.1-3.6
	c-4.8-4.2-9.1-9.4-15.5-11c-4.4-1.1-7.1-1.3-4.8-6.3c-2.2,0.9-4.2,2.2-6.3,3.1C221.4,322.3,221.7,321.5,221.6,320.8z"/>
<circle class="st4" cx="252.1" cy="341.3" r="4.3"/>
<rect x="131.9" y="245.1" class="st5" width="20.7" height="20.7"/>
<path class="st6" d="M165.1,254H140v-25.1h25.1V254z M141.1,252.9H164V230h-22.9V252.9z"/>
<rect x="37" y="311.5" transform="matrix(0.9616 -0.2746 0.2746 0.9616 -86.5623 25.3648)" class="st5" width="20.7" height="20.7"/>
<path class="st6" d="M55,343.5l-6.9-24.2l24.2-6.9l6.9,24.2L55,343.5z M49.5,320.1l6.3,22.1l22.1-6.3l-6.3-22.1L49.5,320.1z"/>
<rect x="44.1" y="211.3" transform="matrix(0.6828 -0.7306 0.7306 0.6828 -144.6859 110.118)" class="st5" width="20.7" height="20.7"/>
<path class="st6" d="M39.9,239.4l17.2-18.4l18.4,17.2l-17.2,18.4L39.9,239.4z M57.1,222.6l-15.7,16.8L58.2,255l15.7-16.8L57.1,222.6
	z"/>
<path class="st6" d="M758.5,205H566.2v-4H479v4H285.9c-7.2,0-13,5.8-13,13v0v263.3c0,7.2,5.8,13,13,13h472.5c7.2,0,13-5.8,13-13V218
	C771.5,210.8,765.6,205,758.5,205L758.5,205z"/>
<rect x="290.3" y="227.9" class="st5" width="463.7" height="261.6"/>
<circle class="st5" cx="521.8" cy="216.1" r="4.8"/>
<polygon class="st2" points="621.4,489.5 290.3,489.5 290.3,227.9 "/>
<circle class="st7" cx="362.9" cy="425.4" r="44.6"/>
<path class="st6" d="M372.8,458.9c-30.6,0-55.4-24.8-55.4-55.4c0-30.6,24.8-55.4,55.4-55.4c30.6,0,55.4,24.8,55.4,55.4
	C428.2,434,403.4,458.8,372.8,458.9z M372.8,348.7c-30.2,0-54.7,24.5-54.7,54.7c0,30.2,24.5,54.7,54.7,54.7
	c30.2,0,54.7-24.5,54.7-54.7C427.5,373.2,403,348.7,372.8,348.7L372.8,348.7z"/>
<rect x="630" y="369" class="st6" width="43.3" height="9.1"/>
<rect x="577.6" y="298.5" class="st6" width="148" height="3.9"/>
<rect x="577.6" y="310.8" class="st6" width="148" height="3.9"/>
<rect x="577.6" y="323.1" class="st6" width="148" height="3.9"/>
<rect x="577.6" y="335.4" class="st6" width="148" height="3.9"/>
<rect x="577.6" y="347.7" class="st6" width="148" height="3.9"/>
<rect x="707.6" y="233.3" class="st7" width="18.1" height="18.1"/>
<path class="st6" d="M734.1,259.8h-22v-22h22V259.8z M713,258.8h20.1v-20.1H713L713,258.8z"/>
<path class="st6" d="M784.5,484.8h-45.3v-3.3c0-0.4-0.3-0.6-0.6-0.6h0h-15.5c-0.4,0-0.6,0.3-0.6,0.6v0v3.3h-9.7v-3.3
	c0-0.4-0.3-0.6-0.6-0.6l0,0h-15.5c-0.4,0-0.6,0.3-0.6,0.6l0,0v3.3h-9.7v-3.3c0-0.4-0.3-0.6-0.6-0.6l0,0h-15.5
	c-0.4,0-0.6,0.3-0.6,0.6l0,0v3.3h-9.7v-3.3c0-0.4-0.3-0.6-0.6-0.6l0,0h-15.5c-0.4,0-0.6,0.3-0.6,0.6v0v3.3h-9.7v-3.3
	c0-0.4-0.3-0.6-0.6-0.6l0,0H617c-0.4,0-0.6,0.3-0.6,0.6l0,0v3.3h-9.7v-3.3c0-0.4-0.3-0.6-0.6-0.6l0,0h-15.5c-0.4,0-0.6,0.3-0.6,0.6
	l0,0v3.3h-9.7v-3.3c0-0.4-0.3-0.6-0.6-0.6l0,0H458c-0.4,0-0.6,0.3-0.6,0.6l0,0v3.3h-9.7v-3.3c0-0.4-0.3-0.6-0.6-0.6l0,0h-15.5
	c-0.4,0-0.6,0.3-0.6,0.6l0,0v3.3h-9.7v-3.3c0-0.4-0.3-0.6-0.6-0.6h0H405c-0.4,0-0.6,0.3-0.6,0.6l0,0v3.3h-9.7v-3.3
	c0-0.4-0.3-0.6-0.6-0.6l0,0h-15.5c-0.4,0-0.6,0.3-0.6,0.6l0,0v3.3h-9.7v-3.3c0-0.4-0.3-0.6-0.6-0.6l0,0H352c-0.4,0-0.6,0.3-0.6,0.6
	l0,0v3.3h-9.7v-3.3c0-0.4-0.3-0.6-0.6-0.6l0,0h-15.5c-0.4,0-0.6,0.3-0.6,0.6v0v3.3h-9.7v-3.3c0-0.4-0.3-0.6-0.6-0.6h0H299
	c-0.4,0-0.6,0.3-0.6,0.6l0,0v3.3h-29.7c-8.6,0-15.5,6.9-15.5,15.5v7c0,8.6,6.9,15.5,15.5,15.5h515.9c8.6,0,15.5-6.9,15.5-15.5v-7
	C800,491.7,793.1,484.8,784.5,484.8z"/>
</svg>
