<?xml version="1.0" encoding="utf-8"?>
<!-- Generator: Adobe Illustrator 21.0.2, SVG Export Plug-In . SVG Version: 6.00 Build 0)  -->
<svg version="1.1" id="Layer_1" xmlns="http://www.w3.org/2000/svg" xmlns:xlink="http://www.w3.org/1999/xlink" x="0px" y="0px"
	 viewBox="0 0 800 800" style="enable-background:new 0 0 800 800;" xml:space="preserve">
<style type="text/css">
	.st0{opacity:0.1;}
	.st1{fill:#216A61;}
	.st2{opacity:0.1;fill:#216A61;enable-background:new    ;}
	.st3{opacity:0.1;fill:#6C63FF;enable-background:new    ;}
	.st4{fill:none;stroke:#162B29;stroke-width:4;stroke-miterlimit:10;}
	.st5{opacity:0.1;enable-background:new    ;}
	.st6{fill:#162B29;}
	.st7{fill:#F8BD9E;}
	.st8{fill:#F0F0F0;}
	.st9{fill:#FF6584;}
	.st10{fill:#799CA0;}
	.st11{fill:#F2F2F2;}
</style>
<g class="st0">
	<ellipse class="st1" cx="349.9" cy="457.2" rx="8.3" ry="10.9"/>
	<path class="st1" d="M356.5,410.7c1.2-2,1.8-4.3,1.7-6.6c0-6-3.7-10.9-8.3-10.9s-8.3,4.9-8.3,10.9c0,2.3,0.6,4.6,1.7,6.6
		c-2.3,4.1-2.3,9.2,0,13.3c-2.3,4.1-2.3,9.2,0,13.3c-1.2,2-1.8,4.3-1.7,6.6c0,6,3.7,10.9,8.3,10.9s8.3-4.9,8.3-10.9
		c0-2.3-0.6-4.6-1.7-6.6c2.3-4.1,2.3-9.2,0-13.3C358.8,419.9,358.8,414.8,356.5,410.7L356.5,410.7z"/>
	<ellipse class="st1" cx="349.9" cy="390.8" rx="8.3" ry="10.9"/>
	<ellipse class="st1" cx="349.9" cy="377.5" rx="8.3" ry="10.9"/>
	<path class="st1" d="M318.8,286.5c-1.1-1.4-2.2-3-3.1-4.6l21.8-3.6l-23.6,0.2c-4.6-10-4.8-21.4-0.7-31.5l31.7,16.4L315.7,242
		c10.9-19.1,35.2-25.8,54.3-14.9c19.1,10.9,25.8,35.2,14.9,54.3c-1,1.8-2.2,3.5-3.5,5.2c1.8,2.2,3.3,4.7,4.5,7.3l-28.3,14.8
		l30.2-10.1c4.3,12.7,1.9,26.8-6.4,37.4c13.6,17,10.6,42-6.7,55.6s-42.3,10.6-55.9-6.7c-11.4-14.4-11.4-34.8,0-49.2
		C307.5,321.3,307.5,301,318.8,286.5L318.8,286.5z"/>
	<path class="st2" d="M389.9,311.1c0,8.9-3,17.6-8.5,24.6C395,353,392,378,374.7,391.6s-42.3,10.6-55.9-6.7
		c-11.4-14.4-11.4-34.8,0-49.2C313.5,328.9,389.9,306.6,389.9,311.1z"/>
</g>
<g class="st0">
	<ellipse class="st1" cx="446.9" cy="434" rx="6.2" ry="8.1"/>
	<path class="st1" d="M451.8,399.2c0.9-1.5,1.3-3.2,1.3-5c0-4.5-2.8-8.1-6.2-8.1c-3.4,0-6.2,3.6-6.2,8.1c0,1.7,0.4,3.5,1.3,5
		c-1.7,3.1-1.7,6.8,0,9.9c-1.7,3.1-1.7,6.8,0,9.9c-0.9,1.5-1.3,3.2-1.3,5c0,4.5,2.8,8.1,6.2,8.1s6.2-3.6,6.2-8.1
		c0-1.7-0.4-3.5-1.3-5c1.7-3.1,1.7-6.8,0-9.9C453.5,406,453.5,402.3,451.8,399.2z"/>
	<ellipse class="st1" cx="446.9" cy="384.3" rx="6.2" ry="8.1"/>
	<ellipse class="st1" cx="446.9" cy="374.4" rx="6.2" ry="8.1"/>
	<path class="st1" d="M423.7,306.4c-0.9-1.1-1.6-2.2-2.3-3.4l16.3-2.7l-17.6,0.1c-3.4-7.4-3.6-16-0.6-23.6l23.7,12.3L421.4,273
		c8.2-14.2,26.4-19.1,40.6-10.9c14.2,8.2,19.1,26.4,10.9,40.6c-0.7,1.2-1.5,2.4-2.4,3.6c1.3,1.7,2.5,3.5,3.4,5.4l-21.2,11l22.6-7.6
		c3.2,9.5,1.4,20-4.8,27.9c10.2,12.9,7.9,31.6-5,41.8c-12.9,10.2-31.6,7.9-41.8-5c-8.5-10.8-8.5-26,0-36.8
		C415.2,332.4,415.2,317.2,423.7,306.4L423.7,306.4z"/>
	<path class="st2" d="M476.8,324.8c0,6.7-2.2,13.1-6.4,18.4c10.2,12.9,7.9,31.6-5,41.8c-12.9,10.2-31.6,7.9-41.8-5
		c-8.5-10.8-8.5-26,0-36.8C419.7,338.1,476.8,321.4,476.8,324.8z"/>
</g>
<g class="st0">
	<ellipse class="st1" cx="758.1" cy="428" rx="8.3" ry="10.9"/>
	<path class="st1" d="M751.5,381.5c-1.2-2-1.8-4.3-1.7-6.6c0-6,3.7-10.9,8.3-10.9s8.3,4.9,8.3,10.9c0,2.3-0.6,4.6-1.7,6.6
		c2.3,4.1,2.3,9.2,0,13.3c2.3,4.1,2.3,9.2,0,13.3c1.2,2,1.8,4.3,1.7,6.6c0,6-3.7,10.9-8.3,10.9s-8.3-4.9-8.3-10.9
		c0-2.3,0.6-4.6,1.7-6.6c-2.3-4.1-2.3-9.2,0-13.3C749.2,390.7,749.2,385.6,751.5,381.5z"/>
	<ellipse class="st1" cx="758.1" cy="361.6" rx="8.3" ry="10.9"/>
	<ellipse class="st1" cx="758.1" cy="348.3" rx="8.3" ry="10.9"/>
	<path class="st1" d="M789.2,257.3c1.1-1.4,2.2-3,3.1-4.6l-21.8-3.6l23.6,0.2c4.6-10,4.8-21.4,0.7-31.5l-31.7,16.4l29.2-21.5
		c-10.9-19.1-35.2-25.8-54.3-14.9c-19.1,10.9-25.8,35.2-14.9,54.3c1,1.8,2.2,3.5,3.5,5.2c-1.8,2.2-3.3,4.7-4.5,7.3l28.3,14.8
		l-30.2-10.1c-4.3,12.7-1.9,26.8,6.4,37.4C713,324,716,349,733.3,362.6s42.3,10.6,55.9-6.7c11.4-14.4,11.4-34.8,0-49.2
		C800.5,292.1,800.5,271.8,789.2,257.3L789.2,257.3z"/>
	<path class="st2" d="M718.1,281.9c0,8.9,3,17.6,8.5,24.6c-13.6,17.3-10.6,42.3,6.7,55.9s42.3,10.6,55.9-6.7
		c11.4-14.4,11.4-34.8,0-49.2C794.5,299.7,718.1,277.4,718.1,281.9z"/>
</g>
<g class="st0">
	<ellipse class="st1" cx="677.9" cy="429.6" rx="6.2" ry="8.1"/>
	<path class="st1" d="M673,394.8c-0.9-1.5-1.3-3.2-1.3-5c0-4.5,2.8-8.1,6.2-8.1s6.2,3.6,6.2,8.1c0,1.7-0.4,3.5-1.3,5
		c1.7,3.1,1.7,6.8,0,9.9c1.7,3.1,1.7,6.8,0,9.9c0.9,1.5,1.3,3.2,1.3,5c0,4.5-2.8,8.1-6.2,8.1s-6.2-3.6-6.2-8.1c0-1.7,0.4-3.5,1.3-5
		c-1.7-3.1-1.7-6.8,0-9.9C671.3,401.7,671.3,397.9,673,394.8z"/>
	<ellipse class="st1" cx="677.9" cy="379.9" rx="6.2" ry="8.1"/>
	<ellipse class="st1" cx="677.9" cy="370" rx="6.2" ry="8.1"/>
	<path class="st1" d="M701.1,302c0.9-1.1,1.6-2.2,2.3-3.4l-16.3-2.7l17.6,0.1c3.4-7.4,3.6-16,0.6-23.6l-23.7,12.3l21.8-16.1
		c-8.2-14.2-26.4-19.1-40.6-10.9c-14.2,8.2-19.1,26.4-10.9,40.6c0.7,1.2,1.5,2.4,2.4,3.6c-1.3,1.7-2.5,3.5-3.4,5.4l21.2,11
		l-22.5-7.6c-3.2,9.5-1.4,20,4.8,27.9c-10.2,12.9-7.9,31.6,5,41.8c12.9,10.2,31.6,7.9,41.8-5c8.5-10.8,8.5-26,0-36.8
		C709.6,328,709.6,312.8,701.1,302L701.1,302z"/>
	<path class="st2" d="M648,320.4c0,6.7,2.2,13.1,6.4,18.4c-10.2,12.9-7.9,31.6,5,41.8c12.9,10.2,31.6,7.9,41.8-5
		c8.5-10.8,8.5-26,0-36.8C705.1,333.7,648,317.1,648,320.4z"/>
</g>
<g class="st0">
	<ellipse class="st1" cx="45" cy="428" rx="8.3" ry="10.9"/>
	<path class="st1" d="M51.5,381.5c1.2-2,1.8-4.3,1.7-6.6c0-6-3.7-10.9-8.3-10.9s-8.3,4.9-8.3,10.9c0,2.3,0.6,4.6,1.7,6.6
		c-2.3,4.1-2.3,9.2,0,13.3c-2.3,4.1-2.3,9.2,0,13.3c-1.2,2-1.8,4.3-1.7,6.6c0,6,3.7,10.9,8.3,10.9s8.3-4.9,8.3-10.9
		c0-2.3-0.6-4.6-1.7-6.6c2.3-4.1,2.3-9.2,0-13.3C53.9,390.7,53.9,385.6,51.5,381.5L51.5,381.5z"/>
	<ellipse class="st1" cx="45" cy="361.6" rx="8.3" ry="10.9"/>
	<ellipse class="st1" cx="45" cy="348.3" rx="8.3" ry="10.9"/>
	<path class="st1" d="M13.9,257.3c-1.1-1.4-2.2-3-3.1-4.6l21.8-3.6L9,249.4c-4.6-10-4.8-21.4-0.7-31.5L40,234.3l-29.2-21.5
		C21.6,193.7,46,187.1,65,198c19.1,10.9,25.7,35.2,14.8,54.3c-1,1.8-2.1,3.4-3.4,5c1.8,2.2,3.3,4.7,4.5,7.3l-28.4,14.7l30.2-10.1
		c4.3,12.7,1.9,26.8-6.4,37.4c13.6,17.3,10.6,42.3-6.7,55.9C52.5,376,27.4,373,13.9,355.7c-11.4-14.4-11.4-34.8,0-49.2
		C2.5,292.1,2.5,271.8,13.9,257.3L13.9,257.3z"/>
	<path class="st2" d="M84.9,281.9c0,8.9-3,17.6-8.5,24.6c13.6,17.3,10.6,42.3-6.7,55.9C52.5,376,27.4,373,13.9,355.7
		c-11.4-14.4-11.4-34.8,0-49.2C8.5,299.7,84.9,277.4,84.9,281.9z"/>
</g>
<g class="st0">
	<ellipse class="st1" cx="125.1" cy="429.6" rx="6.2" ry="8.1"/>
	<path class="st1" d="M130.1,394.8c0.9-1.5,1.3-3.2,1.3-5c0-4.5-2.8-8.1-6.2-8.1c-3.4,0-6.2,3.6-6.2,8.1c0,1.7,0.4,3.5,1.3,5
		c-1.7,3.1-1.7,6.8,0,9.9c-1.7,3.1-1.7,6.8,0,9.9c-0.9,1.5-1.3,3.2-1.3,5c0,4.5,2.8,8.1,6.2,8.1s6.2-3.6,6.2-8.1
		c0-1.7-0.4-3.5-1.3-5c1.7-3.1,1.7-6.8,0-9.9C131.8,401.7,131.8,397.9,130.1,394.8z"/>
	<ellipse class="st1" cx="125.1" cy="379.9" rx="6.2" ry="8.1"/>
	<ellipse class="st1" cx="125.1" cy="370" rx="6.2" ry="8.1"/>
	<path class="st1" d="M101.9,302c-0.8-1.1-1.6-2.2-2.3-3.4l16.3-2.7L98.3,296c-3.4-7.4-3.6-16-0.6-23.6l23.7,12.3l-21.8-16.1
		c8.2-14.2,26.4-19.1,40.6-10.9c14.2,8.2,19.1,26.4,10.9,40.6c-0.7,1.2-1.5,2.4-2.4,3.6c1.3,1.7,2.5,3.5,3.4,5.4l-21.2,11l22.6-7.6
		c3.2,9.5,1.4,20-4.8,27.9c10.2,12.9,7.9,31.6-5,41.8c-12.9,10.2-31.6,7.9-41.8-5c-8.5-10.8-8.5-26,0-36.8
		C93.4,328,93.4,312.8,101.9,302L101.9,302z"/>
	<path class="st2" d="M155,320.4c0,6.7-2.2,13.1-6.4,18.4c10.2,12.9,7.9,31.6-5,41.8c-12.9,10.2-31.6,7.9-41.8-5
		c-8.5-10.8-8.5-26,0-36.8C97.9,333.7,155,317.1,155,320.4z"/>
</g>
<ellipse class="st2" cx="400" cy="552.8" rx="400" ry="6.5"/>
<ellipse class="st2" cx="400" cy="606" rx="400" ry="6.5"/>
<ellipse class="st2" cx="400" cy="442" rx="400" ry="6.5"/>
<ellipse class="st2" cx="400" cy="497.4" rx="400" ry="6.5"/>
<path class="st3" d="M590.4,273.5c-2.6-0.5-5.3-0.2-7.7,0.8c-3,1.3-6.3,1.3-9.3,0c-3.5-1.5-7.5-1.5-10.9,0.2c-1,0.5-2,0.8-3.1,0.8
	c-4.4,0-8.1-4.5-8.9-10.4c0.9-0.7,1.6-1.5,2.2-2.4c2.6-4.2,6.6-6.9,11.1-6.9s8.5,2.7,11.1,6.8c1.6,2.5,4.4,4.1,7.4,4h0.1
	C585.8,266.5,588.9,269.3,590.4,273.5z"/>
<path class="st2" d="M603.9,255l-7.2,4.5l4.4-7.9c-1.2-1-2.8-1.5-4.3-1.5h-0.1c-0.5,0-1,0-1.5-0.1l-2.5,1.5l1-1.9
	c-1.7-0.6-3.2-1.7-4.3-3.2l-4.4,2.8l2.7-5c-2.5-3.1-6-4.9-9.7-4.9c-4.5,0-8.5,2.7-11.2,6.9c-1.6,2.6-4.4,4.1-7.4,4h-0.2
	c-5,0-9,5.7-9,12.6c0,7,4,12.6,9,12.6c1.1,0,2.2-0.3,3.1-0.8c3.4-1.7,7.4-1.8,10.9-0.2c3,1.3,6.3,1.3,9.3,0
	c3.5-1.5,7.4-1.4,10.8,0.2c1,0.5,2,0.8,3.1,0.8c5,0,9-5.7,9-12.6C605.8,260,605.1,257.3,603.9,255z"/>
<path class="st3" d="M285.6,269.5c-1.8-0.3-3.7-0.1-5.4,0.6c-2.1,0.9-4.4,0.9-6.5,0c-2.5-1.1-5.3-1-7.7,0.2
	c-0.7,0.4-1.4,0.5-2.2,0.5c-3.1,0-5.7-3.1-6.2-7.2c0.6-0.5,1.1-1,1.6-1.7c1.8-2.9,4.6-4.8,7.8-4.8c3.2,0,5.9,1.9,7.8,4.8
	c1.1,1.8,3.1,2.9,5.2,2.8h0.1C282.4,264.6,284.5,266.6,285.6,269.5z"/>
<path class="st2" d="M295,256.6l-5,3.2l3-5.5c-0.9-0.7-1.9-1.1-3-1.1l0,0c-0.3,0-0.7,0-1-0.1l-1.7,1.1l0.7-1.3
	c-1.2-0.4-2.2-1.2-3-2.3l-3,1.9l1.9-3.5c-1.6-2.1-4.1-3.4-6.8-3.5c-3.2,0-6,1.9-7.8,4.8c-1.1,1.8-3.1,2.8-5.2,2.8h-0.2
	c-3.5,0-6.3,4-6.3,8.8s2.8,8.8,6.3,8.8c0.8,0,1.5-0.2,2.2-0.6c2.4-1.2,5.2-1.2,7.6-0.1c1,0.5,2.1,0.7,3.3,0.7c1.1,0,2.2-0.2,3.2-0.7
	c2.4-1.1,5.2-1,7.6,0.1c0.7,0.4,1.4,0.5,2.2,0.5c3.5,0,6.3-4,6.3-8.8C296.4,260.1,295.9,258.2,295,256.6z"/>
<path class="st3" d="M196.8,326.7c1.8-0.3,3.7-0.1,5.4,0.6c2.1,0.9,4.4,0.9,6.5,0c2.5-1.1,5.2-1,7.7,0.1c0.7,0.4,1.4,0.5,2.2,0.6
	c3.1,0,5.7-3.1,6.2-7.3c-0.6-0.5-1.1-1-1.5-1.7c-1.8-2.9-4.6-4.8-7.8-4.8s-5.9,1.9-7.8,4.8c-1.1,1.8-3.1,2.9-5.2,2.8h-0.1
	C200,321.9,197.8,323.9,196.8,326.7z"/>
<path class="st2" d="M187.3,313.8l5,3.2l-3.1-5.5c0.9-0.7,1.9-1.1,3-1.1h0.1c0.3,0,0.7,0,1-0.1l1.7,1.1l-0.7-1.3
	c1.2-0.4,2.2-1.2,3-2.3l3,1.9l-1.9-3.5c1.6-2.1,4.1-3.4,6.8-3.4c3.2,0,6,1.9,7.8,4.8c1.1,1.8,3.1,2.8,5.2,2.8h0.2
	c3.5,0,6.3,4,6.3,8.8s-2.8,8.8-6.3,8.8c-0.8,0-1.5-0.2-2.2-0.5c-2.4-1.2-5.2-1.2-7.7-0.2c-1,0.5-2.1,0.7-3.3,0.7
	c-1.1,0-2.2-0.2-3.2-0.7c-2.4-1.1-5.2-1-7.6,0.1c-0.7,0.4-1.4,0.5-2.2,0.5c-3.5,0-6.3-4-6.3-8.8C186,317.4,186.4,315.5,187.3,313.8z
	"/>
<path class="st4" d="M484.9,550.8c1.9-3.5-0.3-7.9-2.7-11s-5.5-6.4-5.5-10.4c0.1-5.8,6.2-9.2,11.1-12.2c3.6-2.3,7-5,10-8
	c1.3-1.2,2.3-2.6,3.1-4.1c1-2.2,1-4.8,0.9-7.3c-0.2-8.2-0.6-16.4-1.2-24.6"/>
<path class="st1" d="M509.8,472.6c-0.1-3.1-1.8-5.8-4.5-7.4l-2,4l0.1-4.8c-4.8-1.4-9.8,1.3-11.2,6.1c-1.4,4.8,1.3,9.8,6.1,11.2
	c4.8,1.4,9.8-1.3,11.2-6.1C509.7,474.6,509.9,473.6,509.8,472.6z"/>
<path class="st1" d="M493.8,533.4c-2.3,4.4-7.7,6.1-12.1,3.9c-2.8-1.5-4.7-4.3-4.9-7.5c-0.1-1.2,0.1-2.5,0.6-3.6
	c1.8-4.6,7-6.9,11.6-5.1c2.4,0.9,4.2,2.8,5.1,5.2l-5.6,4.6l6.2-1.5C494.8,530.8,494.4,532.2,493.8,533.4z"/>
<path class="st1" d="M489.4,516c-5,0.2-9.2-3.6-9.4-8.6c-0.2-4.2,2.5-7.9,6.6-9.1l-0.1,3.7l2-4l0,0c5-0.2,9.2,3.6,9.4,8.6
	C498.1,511.6,494.3,515.8,489.4,516L489.4,516z"/>
<path class="st1" d="M511.2,501.5c-5,0.3-9.2-3.6-9.4-8.5c-0.3-5,3.6-9.2,8.5-9.4c1.7-0.1,3.4,0.3,4.9,1.2l-1.6,4.4l3.2-3.2
	c3.7,3.4,3.9,9,0.6,12.7C515.7,500.3,513.5,501.4,511.2,501.5L511.2,501.5z"/>
<path class="st5" d="M508.6,475c-2.1,0.2-4.1,0.9-6.2,1s-4.4-0.4-5.7-2c-0.6-0.9-1.2-1.9-1.7-2.9c-0.6-0.9-1.3-1.6-2.3-2.1
	c-2.3,4.4-0.5,9.8,3.9,12.1c4.4,2.3,9.8,0.5,12.1-3.9c0.4-0.7,0.6-1.4,0.8-2.2C509.3,475,508.9,475,508.6,475z"/>
<path class="st5" d="M511.2,501.5c-5,0.2-9.2-3.6-9.4-8.6c-0.1-1.5,0.2-2.9,0.9-4.3c0.7,0.5,1.3,1.1,1.8,1.8c0.5,1,1.1,2,1.8,3
	c1.4,1.6,3.8,2.2,6,2.1s4.3-0.7,6.4-0.9c0.3,0,0.6,0,0.9-0.1C518.6,498.5,515.2,501.3,511.2,501.5z"/>
<path class="st5" d="M489.4,516c-5,0.2-9.2-3.6-9.4-8.6c-0.1-1.4,0.2-2.8,0.8-4.1c0.7,0.5,1.4,1.1,1.9,1.8c0.6,1,1.2,2.1,1.9,3
	c1.5,1.7,4.1,2.3,6.4,2.2c2.3-0.1,4.4-0.6,6.6-0.7C496.4,513.3,493.1,515.8,489.4,516z"/>
<path class="st5" d="M493.8,533.4c-2.3,4.4-7.7,6.1-12.1,3.9c-2.8-1.5-4.7-4.3-4.9-7.5c-0.1-1.2,0.1-2.5,0.6-3.6
	c0.7,0.5,1.4,1.1,2,1.8c0.9,1,1.4,2.2,2.4,3.2c1.8,1.8,4.8,2.5,7.4,2.6C490.8,533.7,492.3,533.6,493.8,533.4z"/>
<path class="st4" d="M39.6,498.2c1.9-3.5-0.3-7.9-2.7-11c-2.5-3.1-5.5-6.4-5.5-10.4c0.1-5.8,6.2-9.2,11.1-12.2c3.6-2.3,7-5,10-8
	c1.3-1.2,2.3-2.6,3.1-4.1c1-2.2,1-4.8,0.9-7.3c-0.2-8.2-0.6-16.4-1.2-24.6"/>
<path class="st1" d="M64.6,420.1c-0.1-3.1-1.8-5.8-4.5-7.4l-2,4l0.1-4.8c-4.8-1.4-9.8,1.3-11.2,6.1c-1.4,4.8,1.3,9.8,6.1,11.2
	c4.8,1.4,9.8-1.3,11.2-6.1C64.5,422.1,64.6,421.1,64.6,420.1L64.6,420.1z"/>
<path class="st1" d="M48.5,480.9c-2.3,4.4-7.7,6.1-12.1,3.9c-2.8-1.5-4.7-4.3-4.9-7.5c-0.1-1.2,0.1-2.5,0.6-3.6
	c1.8-4.6,7-6.9,11.6-5.1c2.4,0.9,4.2,2.8,5.1,5.2l-5.6,4.6l6.2-1.5C49.5,478.2,49.2,479.6,48.5,480.9z"/>
<path class="st1" d="M44.1,463.4c-5,0.2-9.2-3.6-9.4-8.6c-0.2-4.2,2.5-7.9,6.6-9.1l-0.1,3.7l2-4l0,0c5-0.2,9.2,3.6,9.4,8.6
	C52.9,459,49,463.2,44.1,463.4L44.1,463.4z"/>
<path class="st1" d="M65.9,448.9c-5,0.3-9.2-3.6-9.4-8.5c-0.3-5,3.6-9.2,8.5-9.4c1.7-0.1,3.4,0.3,4.9,1.2l-1.6,4.4l3.2-3.2
	c3.7,3.4,3.9,9,0.6,12.7C70.5,447.8,68.3,448.8,65.9,448.9L65.9,448.9z"/>
<path class="st5" d="M63.4,422.5c-2.1,0.2-4.1,0.9-6.2,1c-2.1,0.1-4.4-0.4-5.7-2c-0.6-0.9-1.2-1.9-1.7-2.9c-0.6-0.9-1.3-1.6-2.3-2.1
	c-2.3,4.4-0.5,9.8,3.9,12.1c4.4,2.3,9.8,0.5,12.1-3.9c0.4-0.7,0.6-1.4,0.8-2.2C64,422.4,63.7,422.4,63.4,422.5z"/>
<path class="st5" d="M65.9,448.9c-5,0.2-9.2-3.6-9.4-8.6c-0.1-1.5,0.2-2.9,0.9-4.3c0.7,0.5,1.3,1.1,1.8,1.8c0.5,1,1.1,2,1.8,3
	c1.4,1.6,3.8,2.2,6,2.1s4.3-0.7,6.4-0.9c0.3,0,0.6,0,0.9-0.1C73.3,445.9,69.9,448.7,65.9,448.9z"/>
<path class="st5" d="M44.1,463.4c-5,0.2-9.2-3.6-9.4-8.6c-0.1-1.4,0.2-2.8,0.8-4.1c0.7,0.5,1.4,1.1,1.9,1.8c0.6,1,1.2,2.1,1.9,3
	c1.5,1.7,4.1,2.3,6.4,2.2c2.3-0.1,4.4-0.6,6.6-0.7C51.1,460.7,47.9,463.3,44.1,463.4z"/>
<path class="st5" d="M48.5,480.9c-2.3,4.4-7.7,6.1-12.1,3.9c-2.8-1.5-4.7-4.3-4.9-7.5c-0.1-1.2,0.1-2.5,0.6-3.6
	c0.7,0.5,1.4,1.1,2,1.8c0.9,1,1.4,2.2,2.4,3.2c1.8,1.8,4.8,2.5,7.4,2.6C45.5,481.2,47,481.1,48.5,480.9z"/>
<path class="st4" d="M336.1,438.1c-1.9-3.5,0.3-7.8,2.7-11s5.5-6.4,5.4-10.4c-0.1-5.8-6.2-9.2-11.1-12.2c-3.6-2.3-7-5-10-8
	c-1.3-1.2-2.3-2.6-3.1-4.1c-1-2.3-1-4.8-0.9-7.3c0.2-8.2,0.6-16.4,1.2-24.6"/>
<path class="st1" d="M311.2,360c0.1-3.1,1.8-5.8,4.5-7.4l2,4l-0.1-4.8c1-0.3,2-0.4,3-0.4c5,0.2,8.8,4.4,8.6,9.4
	c-0.2,5-4.4,8.8-9.4,8.6C314.8,369.1,311,364.9,311.2,360L311.2,360z"/>
<path class="st1" d="M327.3,420.8c2.3,4.4,7.7,6.2,12.1,3.9c4.4-2.3,6.2-7.7,3.9-12.1c-2.3-4.4-7.7-6.2-12.1-3.9
	c-2,1-3.5,2.8-4.3,4.9l5.6,4.6l-6.2-1.5C326.3,418.1,326.6,419.5,327.3,420.8z"/>
<path class="st1" d="M331.7,403.3c5,0.2,9.2-3.6,9.4-8.5c0.2-4.2-2.5-8-6.6-9.1v3.7l-2-4l0,0c-5-0.2-9.2,3.6-9.4,8.5
	c-0.1,1,0.1,2.1,0.4,3.1C324.6,400.6,327.9,403.1,331.7,403.3z"/>
<path class="st1" d="M309.9,388.8c5,0.3,9.2-3.6,9.4-8.5c0.3-5-3.6-9.2-8.5-9.4c-1.7-0.1-3.4,0.3-4.9,1.2l1.6,4.4l-3.3-3.1
	c-1.8,1.6-2.8,3.8-2.9,6.2c0,0.8,0,1.7,0.2,2.5C302.5,385.8,305.9,388.6,309.9,388.8z"/>
<path class="st5" d="M312.4,362.3c2.1,0.2,4.1,0.9,6.2,1s4.4-0.4,5.7-2c0.6-0.9,1.2-1.9,1.7-2.9c0.6-0.9,1.3-1.6,2.3-2.1
	c2.3,4.4,0.5,9.8-3.9,12.1c-4.4,2.3-9.8,0.5-12.1-3.9c-0.4-0.7-0.6-1.4-0.8-2.2C311.8,362.3,312.1,362.3,312.4,362.3z"/>
<path class="st5" d="M309.9,388.8c5,0.2,9.2-3.6,9.4-8.6c0.1-1.5-0.2-2.9-0.8-4.2c-0.7,0.5-1.3,1.1-1.8,1.8c-0.5,1-1.1,2-1.8,3
	c-1.4,1.6-3.8,2.2-6,2.1s-4.3-0.7-6.4-0.9c-0.3,0-0.6,0-0.9-0.1C302.5,385.8,305.9,388.6,309.9,388.8z"/>
<path class="st5" d="M331.7,403.3c5,0.2,9.2-3.6,9.4-8.5c0.1-1.4-0.2-2.8-0.8-4.1c-0.7,0.5-1.4,1.1-1.9,1.8c-0.6,1-1.2,2.1-1.9,3
	c-1.5,1.7-4.1,2.3-6.4,2.2c-2.3-0.1-4.4-0.6-6.6-0.7C324.6,400.6,327.9,403.1,331.7,403.3z"/>
<path class="st5" d="M327.3,420.8c2.3,4.4,7.7,6.1,12.1,3.8c4-2.1,5.9-6.9,4.3-11.1c-0.7,0.5-1.4,1.1-2,1.8c-0.9,1-1.5,2.2-2.4,3.2
	c-1.8,1.8-4.8,2.5-7.4,2.6C330.3,421,328.8,420.9,327.3,420.8z"/>
<circle class="st6" cx="569.1" cy="366.8" r="73"/>
<path class="st1" d="M600.5,385.6c-2.5-2.5-8.6-6.4-11.7-7.8c-3.5-1.7-4.8-1.6-7.3,0.1c-2.1,1.5-3.4,2.9-5.8,2.4
	c-2.4-0.5-7.1-4.1-11.6-8.6s-8.1-9.2-8.6-11.6s0.9-3.7,2.4-5.8c1.8-2.5,1.8-3.8,0.1-7.3c-1.5-3-5.2-9.1-7.8-11.7s-3.1-2-4.5-1.5
	c-1.4,0.6-2.8,1.3-4.1,2.2c-2.5,1.7-4,3.1-5,5.2s-2.1,6.1,3.7,16.4c4.3,7.9,9.7,15.2,16.1,21.5l0,0l0,0c6.4,6.4,13.6,11.9,21.6,16.2
	c10.4,5.8,14.3,4.7,16.4,3.7s3.5-2.4,5.2-5c0.9-1.3,1.6-2.7,2.2-4.1C602.5,388.7,603,388.1,600.5,385.6z"/>
<path class="st5" d="M569.1,293.8c-40.3,0-73,32.6-73,73c0,40.3,32.6,73,73,73c40.3,0,73-32.6,73-73c0,0,0,0,0-0.1
	C642.1,326.5,609.4,293.8,569.1,293.8z M569.1,430c-34.9,0-63.3-28.3-63.3-63.3c0-34.9,28.3-63.3,63.3-63.3
	c34.9,0,63.3,28.3,63.3,63.3l0,0C632.4,401.7,604.1,430,569.1,430L569.1,430L569.1,430z"/>
<circle class="st6" cx="401.5" cy="477.6" r="73"/>
<path class="st1" d="M443,455.5l-21.8,22.2c-0.2,0.2-0.2,0.4,0,0.6l0,0l15.3,16.3c1,1,1,2.7,0,3.7c-0.5,0.5-1.2,0.8-1.8,0.8
	c-0.7,0-1.4-0.3-1.9-0.8l-15.2-16.2c-0.2-0.2-0.4-0.2-0.6,0l-3.7,3.8c-3.1,3.1-7.3,4.9-11.7,4.9c-4.5,0-8.8-1.8-11.9-5.1l-3.6-3.6
	c-0.2-0.2-0.4-0.2-0.6,0l-15.2,16.2c-1,1-2.7,1-3.7,0l0,0c-1-1-1-2.7,0-3.7l0,0l15.3-16.3c0.1-0.2,0.1-0.4,0-0.6L360,455.5
	c-0.2-0.2-0.4-0.2-0.6,0c-0.1,0.1-0.1,0.2-0.1,0.3v44.5c0,3.6,2.9,6.5,6.5,6.5h71.4c3.6,0,6.5-2.9,6.5-6.5v-44.4
	c0-0.2-0.2-0.4-0.4-0.4C443.2,455.4,443.1,455.4,443,455.5z"/>
<path class="st1" d="M401.5,485.5c3,0,5.9-1.2,8-3.3l31.8-32.4c-1.1-0.9-2.5-1.5-4-1.5h-71.5c-1.5,0-2.9,0.5-4,1.5l31.8,32.4
	C395.7,484.3,398.5,485.5,401.5,485.5z"/>
<path class="st5" d="M400.6,404.6c-40.3,0-73,32.6-73,73s32.6,73,73,73s73-32.6,73-73c0,0,0,0,0-0.1
	C473.5,437.3,440.9,404.6,400.6,404.6z M400.6,540.8c-34.9,0-63.3-28.3-63.3-63.3c0-34.9,28.3-63.3,63.3-63.3
	c34.9,0,63.3,28.3,63.3,63.3l0,0C463.9,512.5,435.5,540.8,400.6,540.8z"/>
<circle class="st6" cx="228.4" cy="423.1" r="73"/>
<path class="st1" d="M228.4,388.2l-29.1,67.1l2.7,2.7l26.4-11.6l26.4,11.6l2.7-2.7L228.4,388.2z"/>
<path class="st5" d="M228.4,350.1c-40.3,0-73,32.6-73,73c0,40.3,32.6,73,73,73c40.3,0,73-32.6,73-73l0,0
	C301.3,382.8,268.7,350.1,228.4,350.1z M228.4,486.3c-34.9,0-63.3-28.3-63.3-63.3s28.3-63.3,63.3-63.3s63.3,28.3,63.3,63.3l0,0
	C291.6,458,263.3,486.4,228.4,486.3L228.4,486.3z"/>
<path class="st4" d="M610.5,495.4c1.9-3.5-0.3-7.9-2.7-11c-2.5-3.1-5.5-6.4-5.4-10.4c0.1-5.8,6.2-9.2,11.1-12.2c3.6-2.3,7-5,10-8
	c1.3-1.2,2.3-2.6,3.1-4.1c1-2.3,1-4.8,0.9-7.3c-0.2-8.2-0.6-16.4-1.2-24.6"/>
<path class="st1" d="M635.4,417.2c-0.1-3.1-1.8-5.8-4.5-7.4l-2,4l0.1-4.8c-1-0.3-2-0.4-3-0.4c-5,0.2-8.8,4.4-8.6,9.4
	s4.4,8.8,9.4,8.6C631.8,426.4,635.6,422.2,635.4,417.2L635.4,417.2L635.4,417.2z"/>
<path class="st1" d="M619.4,478c-2.3,4.4-7.7,6.2-12.1,3.9c-4.4-2.3-6.2-7.7-3.9-12.1s7.7-6.2,12.1-3.9c2,1,3.5,2.8,4.3,4.9
	l-5.6,4.6l6.2-1.5C620.4,475.3,620.1,476.8,619.4,478z"/>
<path class="st1" d="M615,460.6c-5,0.2-9.2-3.6-9.4-8.5c-0.2-4.2,2.5-8,6.6-9.1v3.7l2-4l0,0c5-0.2,9.2,3.6,9.4,8.6
	C623.7,456.1,619.9,460.4,615,460.6C614.9,460.6,614.9,460.6,615,460.6L615,460.6z"/>
<path class="st1" d="M636.8,446.1c-5,0.3-9.2-3.6-9.4-8.5c-0.3-5,3.6-9.2,8.5-9.4c1.7-0.1,3.4,0.3,4.9,1.2l-1.6,4.4l3.3-3.1
	c1.8,1.6,2.8,3.8,2.9,6.2c0,0.8,0,1.7-0.2,2.5C644.2,443.1,640.8,445.9,636.8,446.1z"/>
<path class="st5" d="M634.2,419.6c-2.1,0.2-4.1,0.9-6.2,1s-4.4-0.4-5.7-2c-0.6-0.9-1.2-1.9-1.7-2.9c-0.6-0.9-1.3-1.6-2.3-2.1
	c-2.3,4.4-0.5,9.8,3.9,12.1c4.4,2.3,9.8,0.5,12.1-3.9c0.4-0.7,0.6-1.4,0.8-2.2C634.9,419.5,634.5,419.6,634.2,419.6z"/>
<path class="st5" d="M636.8,446.1c-5,0.2-9.2-3.6-9.4-8.6c-0.1-1.5,0.2-2.9,0.8-4.2c0.7,0.5,1.3,1.1,1.8,1.8c0.5,1,1.1,2,1.8,3
	c1.4,1.6,3.8,2.2,6,2.1s4.3-0.7,6.4-0.9c0.3,0,0.6-0.1,0.9-0.1C644.2,443.1,640.8,445.9,636.8,446.1z"/>
<path class="st5" d="M615,460.6c-5,0.2-9.2-3.6-9.4-8.5c-0.1-1.4,0.2-2.8,0.8-4.1c0.7,0.5,1.4,1.1,1.9,1.8c0.7,1,1.1,2.1,1.9,3
	c1.5,1.7,4.1,2.3,6.4,2.2c2.3-0.1,4.4-0.6,6.6-0.8C622,457.9,618.7,460.4,615,460.6z"/>
<path class="st5" d="M619.4,478c-2.3,4.4-7.8,6-12.2,3.7c-3.9-2.1-5.7-6.8-4.2-11c0.7,0.5,1.4,1.1,2,1.8c0.9,1,1.4,2.2,2.4,3.2
	c1.8,1.8,4.8,2.5,7.4,2.6C616.4,478.3,617.9,478.2,619.4,478z"/>
<path class="st4" d="M726.6,606.3c1.9-3.5-0.3-7.9-2.7-11s-5.5-6.4-5.4-10.4c0.1-5.8,6.2-9.2,11.1-12.2c3.6-2.3,7-5,10-8
	c1.3-1.2,2.3-2.6,3.1-4.1c1-2.3,1-4.8,0.9-7.3c-0.2-8.2-0.6-16.4-1.2-24.6"/>
<path class="st1" d="M751.5,528.2c-0.1-3.1-1.8-5.8-4.5-7.4l-2,4l0.1-4.8c-0.9-0.3-1.9-0.4-2.9-0.4c-5,0.2-8.8,4.4-8.6,9.4
	s4.4,8.8,9.4,8.6C747.9,537.3,751.7,533.1,751.5,528.2L751.5,528.2L751.5,528.2z"/>
<path class="st1" d="M735.5,589c-2.3,4.4-7.7,6.2-12.1,3.9c-4.4-2.3-6.2-7.7-3.9-12.1c2.3-4.4,7.7-6.2,12.1-3.9c2,1,3.5,2.8,4.3,4.9
	l-5.6,4.6l6.2-1.5C736.5,586.3,736.1,587.7,735.5,589z"/>
<path class="st1" d="M731,571.5c-5,0.2-9.2-3.6-9.4-8.5c-0.2-4.2,2.5-8,6.6-9.1v3.7l2-4l0,0c5-0.2,9.2,3.6,9.4,8.6
	C739.8,567.1,736,571.3,731,571.5L731,571.5L731,571.5z"/>
<path class="st1" d="M752.8,557c-5,0.3-9.2-3.6-9.4-8.5c-0.3-5,3.6-9.2,8.5-9.4c1.7-0.1,3.4,0.3,4.9,1.2l-1.6,4.4l3.3-3.1
	c1.8,1.6,2.8,3.8,2.9,6.2c0,0.8,0,1.7-0.2,2.5C760.2,554,756.8,556.8,752.8,557z"/>
<path class="st5" d="M750.3,530.6c-2.1,0.2-4.1,0.9-6.2,1c-2.1,0.1-4.4-0.4-5.7-2c-0.6-0.9-1.2-1.9-1.7-2.9
	c-0.6-0.9-1.3-1.6-2.3-2.1c-2.3,4.4-0.5,9.8,3.9,12.1s9.8,0.5,12.1-3.9c0.4-0.7,0.6-1.4,0.8-2.2
	C750.9,530.5,750.6,530.5,750.3,530.6z"/>
<path class="st5" d="M752.8,557c-5,0.2-9.2-3.6-9.4-8.6c-0.1-1.5,0.2-2.9,0.8-4.2c0.7,0.5,1.3,1.1,1.8,1.8c0.5,1,1.1,2,1.8,3
	c1.4,1.6,3.8,2.2,6,2.1c2.2-0.1,4.3-0.7,6.4-0.9c0.3,0,0.6-0.1,0.9-0.1C760.2,554,756.8,556.8,752.8,557z"/>
<path class="st5" d="M731,571.5c-5,0.2-9.2-3.6-9.4-8.5c-0.1-1.4,0.2-2.8,0.8-4.1c0.7,0.5,1.4,1.1,1.9,1.8c0.7,1,1.1,2.1,1.9,3
	c1.5,1.7,4.1,2.3,6.4,2.2c2.3-0.1,4.4-0.6,6.6-0.8C738.1,568.8,734.8,571.3,731,571.5z"/>
<path class="st5" d="M735.5,589c-2.3,4.4-7.8,6-12.2,3.7c-3.9-2.1-5.7-6.8-4.2-11c0.7,0.5,1.4,1.1,2,1.8c0.9,1,1.5,2.2,2.4,3.2
	c1.8,1.8,4.8,2.5,7.4,2.6C732.4,589.2,733.9,589.2,735.5,589z"/>
<polygon class="st7" points="534.1,601.1 533.7,605.7 526.8,603.4 529.6,600 "/>
<polygon class="st7" points="559.3,599.6 559,604.1 555.1,604.6 552.8,602.5 555.5,598.3 "/>
<path class="st6" d="M562.2,542.9c0,0,3.1,3.6-0.8,9.2c-3.9,5.6-8.5,11-8.5,11l-8.6,16.4c0,0-4.4,16-5.5,16.5c-1,0.5-1.6-1.4-1,0.6
	s0.2,1.8-0.2,1.9c-0.5,0.1-1.7-0.1-1.3,0.7c0.5,0.8,0.8,0.8-0.1,0.8c-0.9,0-1.3-0.6-1.3,0.2s-0.8,2.6-0.8,2.6s-5.6-1.6-5.8-2.3
	s1.5-1,1.1-1.7s-0.5-0.7-0.5-1.7s0.7-1.3,0.7-1.3s0.6-0.2,0.3-0.7c-0.2-0.5-1.1-0.2,0-0.8s5.8-18,5.8-18s0-8.6,1.5-11.5
	c1.5-2.8,0.3-23.1,3.9-23.3S562.2,542.9,562.2,542.9z"/>
<path class="st6" d="M561,549.4l-0.7,17.6c0,0,3.4,17.1,2.3,22.3c-1.1,5.2-0.3,4.6-1,5.5s-1.3,0.5-0.7,1.3s0.9,1,0,1.9
	s-1.4,3.1-1.4,3.1l-5.8-0.6c0,0,1.5-2.6,0.9-3.2s-2,0.3-0.9-0.9c1.1-1.3,1.8-0.7,1.1-1.3s-1.7-0.3-0.8-1.3c0.9-0.9,1.9-0.9,1-1.3
	c-0.9-0.3-1.9,0-1.5-0.7c0.5-0.7,1-1.5,1-1.5l-1.4-10.4c0,0-1.6-3.4-1.1-4.9s-1.9-13.7-1.9-13.7L561,549.4z"/>
<path class="st6" d="M558.5,601.9c0,0,1.1-1.1,1.5-0.5c0.3,0.7,2.8,6.8,1.4,7.3c-1.5,0.5-3.6,0.9-4.8,0.6s-3.5-1.9-6.4-1.9
	s-5.2-1.3-5.2-1.7c0-0.5-0.5-3.2,1.7-3.2s6.1-2.5,6.1-2.5s0.9-1.8,1.4-1.7s0.1,3.8,0.1,3.8S556.9,604.5,558.5,601.9z"/>
<path class="st6" d="M533.3,603.4c0,0,1-2.5,2-1.9s0.3,7.6,0.3,7.6s-0.9,1.5-3.5,1.1c-2.6-0.3-9.6-1.1-11.2-0.8
	c-1.6,0.3-5.9-1.6-4.8-4.2c0,0,0.6-1.5,3.3-1.4s7.7-3.2,7.7-3.2s0.8-2.3,1-2c0.2,0.2,0.5,4.2,0.5,4.2S531.7,604.7,533.3,603.4z"/>
<circle class="st7" cx="548.2" cy="491.8" r="6.6"/>
<path class="st7" d="M553.3,492.3c0,0,3.5,7.1,4.8,7.7c1.3,0.7-8.5,4.9-8.5,4.9s-1.6-6.9-3.5-8.4C544.1,495,553.3,492.3,553.3,492.3
	z"/>
<path class="st7" d="M543.2,550l-0.5,4.3c0,0-4.9-1.7-3.3-4.9L543.2,550z"/>
<path class="st8" d="M541.2,543.5c3.4,3.6,21.5,0.6,21.5,0.6l-0.2-2.6l2.3-2.4l-0.7-11.2c0,0,2-5.2,2.4-13.2c0-0.5,0-1-0.1-1.5
	c-1.2-7.1-12.8-11.7-13.1-11.6c-0.2,0.1-1.9,0.9-3.7,1.9c-2,1.1-4.2,2.2-4.2,2.2c-2.7,1-2.3,17.4-3.2,18.9s0,6.6,0,6.6l-1,4.9
	C541.2,536.1,537.8,539.9,541.2,543.5z"/>
<path class="st5" d="M552.3,507.4c0,0,3.2,9.6,2.5,16c-0.7,6.5-8.1,25-8.1,25l-2.5,1.4v3.2l-1.8-4.8l4.8-10.1
	C547.3,538.1,541.2,503.2,552.3,507.4z"/>
<path class="st5" d="M549.3,504.5c3.3-1.8,8.3,3,13.5,8.1c1.9,1.8,3,1.7,3.6,0.7c-1.2-7.1-12.8-11.7-13.1-11.6
	c-0.2,0.1-1.9,0.9-3.7,1.9L549.3,504.5z"/>
<path class="st8" d="M549.3,503.6l1.4-3.8c0,0,9.3-4.4,15.5,0l1,6.4c0,0,0.9,10.6-4.3,5.5C557.6,506.6,552.6,501.8,549.3,503.6z"/>
<path class="st8" d="M551.9,505.8c0,0,3.2,9.6,2.5,16c-0.7,6.5-8.1,25-8.1,25l-2.5,1.4v3.2l-5.2-1.5l1.1-3.8c0,0-1.8-2.3-0.6-3
	c1.3-0.7,1-4.4,1-4.4S540.9,501.6,551.9,505.8z"/>
<path class="st6" d="M554.1,494.6c-0.1-0.5-0.1-1.1-0.3-1.5c-0.4-0.7-1.2-1-2-1c-1-0.1-2,0.1-3,0s-2.1-0.4-2.6-1.3
	c-0.2-0.3-0.3-0.8-0.6-1.1c-0.5-0.6-1.5-0.5-2.3-0.3c-0.8,0.3-1.6,0.7-2.4,0.4c-0.7-1.9,0.2-4.1,1.6-5.5c1.4-1.4,3.4-2.1,5.3-2.7
	c2.5-0.7,5.4-1.2,7.7,0.1c3.4,1.8,4.6,6.6,4.3,10.1c-0.1,1.3-0.3,2.9-1.4,3.8C556.8,497,554.5,496.9,554.1,494.6z"/>
<path class="st7" d="M316.7,475.7c0,0-4.1,6.6-2.7,8.4c1.5,1.8-11.1,1.8-11.1,1.8s1.9-9.6,1.3-11.8L316.7,475.7z"/>
<path class="st5" d="M316.7,475.7c0,0-4.1,6.6-2.7,8.4c1.5,1.8-11.1,1.8-11.1,1.8s1.9-9.6,1.3-11.8L316.7,475.7z"/>
<ellipse class="st9" cx="310.1" cy="465.1" rx="13" ry="13"/>
<polygon class="st7" points="279.6,535.5 279.6,543.3 271.9,541.6 272.5,536.2 "/>
<path class="st7" d="M252.3,536.8l-21.5,3.5l5.5,8c0,0,15.1-5.1,18.9-5.1C259,543.3,252.3,536.8,252.3,536.8z"/>
<path class="st6" d="M301.1,521.4c0,0-16-18.6-21.2-17.7c-5.1,1-7.4,6.7-7.4,6.7l-2.9,28.6c0,0,10.3,1,10.3,0s1.9-21.5,1.9-21.5
	s15.1,33.4,23.1,11.2L301.1,521.4z"/>
<path class="st6" d="M327,533.9c0,0-0.3,16.1-9.9,17c-9.6,1-20.2-6.4-20.2-6.4l-17.3-8.3c0,0-20.5,10.9-26.6,8c0,0-6.4-6.7-2.2-8.7
	c4.2-1.9,0.3,0,0.3,0l24.7-12.8c0,0,4.8-1.3,13.1,2.2s19.6,5.1,19.6,5.1L327,533.9z"/>
<ellipse class="st7" cx="311" cy="469.4" rx="9.6" ry="9.6"/>
<path class="st1" d="M297.2,496.4l0.6,13.5c0,0-0.3,17.7,2.6,18.9c1.5,0.6,4.4,2,7.1,3.4c2,1.1,3.9,2.2,5,3.2
	c0.3,0.2,0.5,0.5,0.7,0.8c1.3,2.2,9.6,1.9,11.5,0.3c1.9-1.6,0.6,1.9,2.2,2.6c1.6,0.6,3.7-4.5,2.4-12.1c0-0.3-0.1-0.5-0.1-0.8
	c-1.5-7.4,0.8-25,0.5-31.8c0-0.5-0.1-1-0.2-1.6c-1-5.1-13.2-15.6-15.5-11.1c-2.8,5.5-9.3,0.5-10.4-2c-6.4-0.3-8.7,7.4-8.7,7.4
	L297.2,496.4z"/>
<path class="st6" d="M271.2,540.4c0,0,5.1,1.9,6.7,1.6c1.6-0.3,3.2,1,3.2,2.9s1.9,6.4-1,6.7s-14.8-0.3-17.3,0.6
	c0,0-11.5,0.3-10.6-4.5c1-4.8,5.8-4.5,5.8-4.5S271.2,542.6,271.2,540.4z"/>
<path class="st6" d="M233.7,541.3c0,0-0.6-1.9-1.6-1.9s-8.7,1.3-9.6,1c-1-0.3-12.2-1-10.3,4.5s8.3,6.1,8.3,6.1s11.5-1.3,13.1-1
	s7.4,0,6.4-1.6C239.2,546.8,233.1,543.9,233.7,541.3z"/>
<path class="st10" d="M262.9,495.2l-1.8,7.3c0,0.1,0,0.2,0,0.2l8,25c0.1,0.2,0.3,0.4,0.6,0.3c0.2-0.1,0.3-0.2,0.3-0.4l1.1-9.7
	c0-0.1,0-0.1,0-0.2l-7.3-22.5c-0.1-0.2-0.3-0.4-0.6-0.3C263.1,494.9,262.9,495.1,262.9,495.2z"/>
<polygon class="st11" points="263.6,495.8 261.9,502.1 269,524.8 270.6,517.8 "/>
<path class="st10" d="M299,529.7c-0.3,0.8-28.2-0.3-28.4-0.5c-0.2-0.3-0.4-0.7-0.6-1.1c-0.3-0.5-0.5-1.1-0.5-1.1l1.1-8.8l27.6-1
	c0,0,0.7,7.4,0.8,10.8C299.1,528.6,299.1,529.2,299,529.7z"/>
<polygon class="st5" points="274.1,519.4 273.6,527 285.8,527 285.8,519.4 "/>
<polygon class="st5" points="289.8,521.8 289.7,521.8 290.1,525.1 296.9,525.1 296.9,521.8 "/>
<path class="st5" d="M299,529.7c-0.3,0.8-28.2-0.3-28.4-0.5c-0.2-0.3-0.4-0.7-0.6-1.1h29C299.1,528.6,299.1,529.2,299,529.7z"/>
<path class="st9" d="M303.3,442c1,1.4,2.4,2.4,4.1,2.8c2.9,0.8,0,5.1,0,5.1s1-1.6-0.5-3.2S303.1,443.9,303.3,442z"/>
<ellipse class="st9" cx="308" cy="450.9" rx="3.6" ry="3.6"/>
<path class="st6" d="M303.3,453.9c2.9-1.1,7.9-1.7,10.4-1.3l-0.3-2.5c-2.4,1.3-7.3,1.8-10.4,1.3L303.3,453.9z"/>
<path class="st9" d="M309.1,454.8c0,0,3.7,6.2,12.3,8.5c8.6,2.3,0.1,15.2,0.1,15.2s3.1-4.7-1.4-9.7
	C315.6,463.9,308.4,460.5,309.1,454.8z"/>
<path class="st9" d="M308.8,454.5c0,0-3.6,8.5-7.5,9.3s-3.6,14.2,2.5,16.2c0,0-4.4-7.8-0.6-13.1C307,461.5,309.4,457.4,308.8,454.5z
	"/>
<path class="st5" d="M307.5,532.2c0.8,1.5,1.7,3.1,1.9,3.7c0.1,0.4,1.3,0.2,3.1-0.5c3.7-1.4,10.1-4.6,16.1-7.8
	c0.3-0.1,0.5-0.3,0.8-0.5c0-0.3-0.1-0.5-0.1-0.8c-1.5-7.4,0.8-25,0.5-31.8l-2.7-0.9l-5.5,5.1v21.8c0,0-14.1,7.7-15.1,8.3
	C306,529.1,306.7,530.6,307.5,532.2z"/>
<path class="st7" d="M295.6,514.7l-8.7,4.5c0,0-5.1-5.5-8.3-1.3c-3.2,4.2,9.3,5.5,9.3,5.5s10.9-2.6,11.2-6.1
	C299.5,513.7,295.6,514.7,295.6,514.7z"/>
<path class="st7" d="M310,526.6l-5.1,1.3c0,0-5.8-7.1-11.9-4.5s7.7,7.7,7.7,7.7s7.4,3.9,10.3,0.6C313.9,528.5,310,526.6,310,526.6z"
	/>
<path class="st1" d="M298.8,484.2c-0.3,0.3-3.8,2.9-3.8,2.9s-1,12.2,0.3,14.8c1.3,2.6,2.2,2.6,1.3,3.9c-1,1.3-2.2,0.3-1,2.6
	c1.3,2.2,2.6,1.9,1.6,2.9s-0.6,1.3-0.6,1.3l-3.8,3.2c0,0,2.4,3.8,5.4,3.5s5.6-14.7,5.6-14.7L298.8,484.2z"/>
<path class="st1" d="M327,491.9l2.9,1c0,0,7.7,28.2-1.3,33.1c-9,4.8-18.9,9.6-19.2,8.3c-0.3-1.3-3.8-6.4-2.9-7.1
	c1-0.6,15.1-8.3,15.1-8.3V497L327,491.9z"/>
<polygon class="st5" points="322.7,503.6 323.4,519 306.4,527 322.1,519 "/>
</svg>
