<?xml version="1.0" encoding="utf-8"?>
<!-- Generator: Adobe Illustrator 21.0.2, SVG Export Plug-In . SVG Version: 6.00 Build 0)  -->
<svg version="1.1" id="Layer_1" xmlns="http://www.w3.org/2000/svg" xmlns:xlink="http://www.w3.org/1999/xlink" x="0px" y="0px"
	 viewBox="0 0 800 800" style="enable-background:new 0 0 800 800;" xml:space="preserve">
<style type="text/css">
	.st0{fill:#A6BDBF;}
	.st1{fill:#216A61;}
	.st2{opacity:0.2;enable-background:new    ;}
	.st3{fill:#F8BD9E;}
	.st4{fill:#162B29;}
</style>
<ellipse class="st0" cx="74.1" cy="616.8" rx="73.9" ry="5.2"/>
<ellipse class="st0" cx="298.3" cy="672.9" rx="192" ry="9.1"/>
<polygon class="st1" points="398.2,304 401.7,297.9 384.3,294.5 382.6,303.1 385.2,310.1 "/>
<polygon class="st2" points="398.2,304 401.7,297.9 384.3,294.5 382.6,303.1 385.2,310.1 "/>
<circle class="st3" cx="388.2" cy="277.5" r="22.6"/>
<polygon class="st3" points="369.1,277.5 350.9,307.9 377.8,323.6 391.7,291.4 "/>
<path class="st1" d="M367.4,313.1l-23.5-9.6c0,0-35.6,6.1-39.1,17.4c-3.5,11.3-3.5,102.5-3.5,102.5s-8.7,22.6,3.5,23.5
	c0,0-3.5,5.2,0,6.1s39.1,0,53,4.3c13.9,4.3,41.7,7.8,41.7,3.5V453c0,0,6.1-6.1,2.6-16.5s-7.8-33-7.8-33s26.1-57.4,23.5-64.3
	c-2.6-7-34.4-28.4-34.4-28.4L367.4,313.1z"/>
<polygon class="st3" points="313.5,423.5 314.4,430.5 326.6,415.7 322.2,415.7 "/>
<path class="st1" d="M367.4,313.1l-25.2-6.1c0,0-5.2-4.3-5.2-9.6s7.8-13,13-18.2c1-1,2.2-1.5,3.5-1.5c5.1,0,11.4,6.7,11.4,6.7
	l-7,11.6l-0.3,0.5L367.4,313.1z"/>
<path class="st1" d="M386.9,302.8l14.9-4.9c0,0,4.8,18.7-0.4,19.6s-33.9-1.7-33.9-1.7L386.9,302.8z"/>
<path class="st4" d="M306.6,448.7L295.3,513c0,0-4.3,7.8-2.6,11.3c1.7,3.5,2.6,3.5,0,5.2c-2.6,1.7-6.1,0-5.2,4.3
	c0.5,2.6,0.8,5.2,0.9,7.8L264,625.1c0,0-15.6,7-4.3,11.3c11.3,4.3,22.6,7.8,25.2,3.5c2.6-4.3,0-9.6,0-9.6l40-95.6
	c0,0,6.1-8.7,6.1-13.9c0-5.2,20-42.6,20-42.6s0.9,37.4,1.7,40c0.9,2.6-1.7,7.8-1.7,11.3c0,3.5-1.7,3.5,0,5.2
	c1.7,1.7,1.7,21.7,1.7,21.7s-10.4,77.3-4.3,78.2s23.5-0.9,23.5-4.3c0-3.5-2.6-4.3-2.6-4.3l11.3-66c0,0-0.9-4.3,0.9-7.8
	c1.7-3.5,1.7-3.5,1.7-5.2c0-1.7-0.9-2.6,0-3.5c0.6-0.8,0.9-1.7,0.9-2.6c0,0-1.7-5.2-0.9-6.1s20-66,13.9-73.9
	C390.9,453,306.6,448.7,306.6,448.7z"/>
<path class="st4" d="M349.1,632l-6.1,13.9c0,0-13.9,15.6-3.5,19.1c10.4,3.5,13.9,2.6,13.9,2.6s4.3,0.9,4.3,2.6s34.8,14.8,37.4,3.5
	c2.6-11.3-26.9-32.2-26.9-32.2v-10.4L349.1,632z"/>
<path class="st4" d="M282.1,638.5l1.3,15.1c0,0,8.2,19.3-2.8,19.2c-10.9-0.1-14-2-14-2s-4.4-0.6-5,1c-0.5,1.7-37.6,2.9-36.5-8.7
	s35.8-21.8,35.8-21.8l3.3-9.9L282.1,638.5z"/>
<path class="st4" d="M366.3,283.7c1.4-0.1,2.3-1.7,2.7-3c0.3-1.4,0.5-3,1.3-4.3c2.2-3.4,7.8-2,10.1-5.4c1.4-2,1.1-5.4,3.1-6.7
	c1.3-0.8,2.9-0.4,4.3,0.1c5.5,2,10.5,5,14.9,8.9l1.8-1.5l2.3,4.5c0.9-1,2.6-0.3,3.3,1s1.1,2.7,2.2,3.6c1.7,1.4,4.3,0.2,5.3-1.7
	c1-1.9,0.9-4.4,0.5-6.6c-0.9-5.6-2.8-10.9-5.5-15.9l2.1-1.2L412,255l1-2.3h-2.8l1.1-2c-3.7,1.3-7.6-1-11.3-2.9
	c-6-3-12.8-4.3-19.4-3.3c-6.8,1.1-12.8,5-16.6,10.8c-2.9,4.5-4.5,11-3,16.4C362.2,276.5,367.9,277.3,366.3,283.7z"/>
<path class="st1" d="M310,317.5c0,0-5.2-0.9-8.7,6.1s-29.5,62.6-16.5,79.9c13,17.4,25.2,22.6,25.2,22.6l2.6,0.9l13-13.9l-4.3-6.1
	c0,0,0-6.1-3.5-7c-3.5-0.9-3.5,1.7-4.3-1.7c-0.9-3.5,3.5-0.9-0.9-4.3c-4.3-3.5-0.9-5.2-0.9-5.2L310,317.5z"/>
<polygon class="st3" points="402.2,433.5 401.3,440.4 389.1,425.7 393.5,425.7 "/>
<path class="st1" d="M400.8,336.2c0,0,12.2-6.1,15.6,0.9c3.5,7,27.4,59.1,14.3,76.5c-13,17.4-25.2,22.6-25.2,22.6L403,437l-13-13.9
	l4.3-6.1c0,0,0-6.1,3.5-7s3.5,1.7,4.3-1.7c0.9-3.5-3.5-0.9,0.9-4.3c4.3-3.5,0.9-5.2,0.9-5.2L400.8,336.2z"/>
<polygon class="st2" points="318.3,351.8 308.7,390 320,403.9 314.8,386.6 "/>
<path class="st2" d="M365,284.6l-7,11.6c-4.3-1.5-4.7-11.6-4.5-18.3C358.7,277.8,365,284.6,365,284.6z"/>
<path class="st0" d="M217.3,649.3c0.2,15.5-9,20.9-20.3,21c-0.3,0-0.5,0-0.8,0c-0.5,0-1,0-1.6-0.1c-10.3-0.6-18.2-6.3-18.4-20.6
	c-0.2-14.9,18.7-33.9,20.1-35.3l0,0c0.1-0.1,0.1-0.1,0.1-0.1S217.2,633.8,217.3,649.3z"/>
<path class="st0" d="M187.8,574.6c0.1,10.9-6.3,14.8-14.3,14.9c-0.2,0-0.3,0-0.5,0c-0.3,0-0.7,0-1.1,0c-7.2-0.4-12.9-4.4-12.9-14.5
	c-0.1-10.5,13.2-23.9,14.2-24.9l0,0l0.1-0.1C173.1,550,187.7,563.7,187.8,574.6z"/>
<ellipse class="st0" cx="173.2" cy="588" rx="52.1" ry="3.6"/>
<rect x="456.2" y="357.4" class="st4" width="344.8" height="175.5"/>
<rect x="518.7" y="416.5" class="st1" width="34.9" height="2.9"/>
<rect x="565.3" y="416.5" class="st1" width="34.9" height="2.9"/>
<rect x="632.9" y="443.4" class="st1" width="34.9" height="2.9"/>
<rect x="680.2" y="443.4" class="st1" width="34.9" height="2.9"/>
<rect x="612.5" y="416.5" class="st1" width="102.5" height="2.9"/>
<rect x="518.7" y="443.4" class="st1" width="102.5" height="2.9"/>
<rect x="518.7" y="470.3" class="st1" width="102.5" height="2.9"/>
<rect x="643.8" y="470.3" class="st1" width="71.3" height="2.9"/>
<polygon class="st1" points="508.9,428.8 496.6,416.5 508.9,404.2 511.4,406.6 501.6,416.5 511.4,426.3 "/>
<polygon class="st1" points="748.2,485.5 745.7,483 755.6,473.2 745.7,463.4 748.2,461 760.5,473.2 "/>
<rect x="720.7" y="471.1" transform="matrix(0.29 -0.957 0.957 0.29 68.14 1037.4493)" class="st1" width="25.1" height="3.5"/>
<path class="st0" d="M80.6,593.6L145,498L80.8,603.9l0.2,10.8c-4.7,0-9.4,0-14-0.3L70.2,476l-0.1-1l0.1-0.2l0.3-13.1L0,359.3
	l70.4,92.5l0.3,2.8L73.1,350L12.2,244l61.1,87.8l-0.7-216.8v-0.7v0.7l4.1,170.7l55.5-69.3l-55.3,84.1L78,394l51.1-91.3L78.2,407.8
	l0.7,52.1l74.2-127.2L79.2,477.9L80.6,593.6z"/>
</svg>
