<?xml version="1.0" encoding="utf-8"?>
<!-- Generator: Adobe Illustrator 21.0.2, SVG Export Plug-In . SVG Version: 6.00 Build 0)  -->
<svg version="1.1" id="Layer_1" xmlns="http://www.w3.org/2000/svg" xmlns:xlink="http://www.w3.org/1999/xlink" x="0px" y="0px"
	 viewBox="0 0 800 800" style="enable-background:new 0 0 800 800;" xml:space="preserve">
<style type="text/css">
	.st0{fill:#162B29;}
	.st1{fill:#216A61;}
	.st2{opacity:0.7;}
	.st3{fill:url(#SVGID_1_);}
	.st4{opacity:0.1;enable-background:new    ;}
	.st5{fill:#E0E0E0;}
	.st6{fill:url(#SVGID_2_);}
	.st7{fill:#F8BD9E;}
	.st8{fill:url(#SVGID_3_);}
	.st9{fill:#FFFFFF;}
	.st10{fill:#EEEEEE;}
</style>
<path class="st0" d="M120.1,583.9c-5.8,21.9-25.9,35.6-25.9,35.6s-10.8-21.8-5.1-43.7c5.8-21.9,25.9-35.6,25.9-35.6
	S125.8,562,120.1,583.9z"/>
<path class="st1" d="M111.4,579.3c-16.1,15.9-17.9,40.2-17.9,40.2s24.3-1.5,40.4-17.4c16.1-15.9,17.9-40.2,17.9-40.2
	S127.5,563.3,111.4,579.3z"/>
<path class="st1" d="M68.6,613.1h63c6.9,0,12.5,5.6,12.5,12.5V638c0,6.9-5.6,12.5-12.5,12.5h-63c-6.9,0-12.5-5.6-12.5-12.5v-12.4
	C56,618.7,61.6,613.1,68.6,613.1z"/>
<g class="st2">
	
		<linearGradient id="SVGID_1_" gradientUnits="userSpaceOnUse" x1="826.7416" y1="31.7556" x2="826.7416" y2="107.3592" gradientTransform="matrix(1 0 0 -1 -114.2798 683)">
		<stop  offset="0" style="stop-color:#808080;stop-opacity:0.25"/>
		<stop  offset="0.5351" style="stop-color:#808080;stop-opacity:0.12"/>
		<stop  offset="1" style="stop-color:#808080;stop-opacity:0.1"/>
	</linearGradient>
	<path class="st3" d="M737.5,589.1v-13.5H670v62.4c0,7.3,5.9,13.2,13.2,13.2l0,0h41.2c7.3,0,13.2-5.9,13.2-13.2l0,0v-13.8
		c9.7,0,17.5-7.9,17.5-17.6C754.9,597,747.1,589.2,737.5,589.1L737.5,589.1z M737.5,617.5v-21.6c6,0,10.8,4.8,10.8,10.8
		C748.3,612.7,743.4,617.5,737.5,617.5z"/>
</g>
<path class="st1" d="M735.3,591.3c-8.9,0-16,7.2-16,16c0,8.9,7.2,16,16,16c8.9,0,16-7.2,16-16S744.1,591.3,735.3,591.3z
	 M735.3,617.1c-5.4,0-9.9-4.4-9.9-9.9s4.4-9.9,9.9-9.9c5.4,0,9.9,4.4,9.9,9.9l0,0C745.1,612.7,740.7,617.1,735.3,617.1z"/>
<path class="st4" d="M735.3,591.3c-8.9,0-16,7.2-16,16c0,8.9,7.2,16,16,16c8.9,0,16-7.2,16-16S744.1,591.3,735.3,591.3z
	 M735.3,617.1c-5.4,0-9.9-4.4-9.9-9.9s4.4-9.9,9.9-9.9c5.4,0,9.9,4.4,9.9,9.9l0,0C745.1,612.7,740.7,617.1,735.3,617.1z"/>
<path class="st1" d="M673.7,578.9h61.6l0,0v61c0,4.4-3.6,8-8,8l0,0h-45.6c-4.4,0-8-3.6-8-8l0,0V578.9L673.7,578.9z"/>
<rect y="648" class="st5" width="800" height="27.1"/>
<g class="st2">
	
		<linearGradient id="SVGID_2_" gradientUnits="userSpaceOnUse" x1="514.8165" y1="104.6245" x2="514.8165" y2="541.9999" gradientTransform="matrix(1 0 0 -1 -114.2798 683)">
		<stop  offset="0" style="stop-color:#808080;stop-opacity:0.25"/>
		<stop  offset="0.5351" style="stop-color:#808080;stop-opacity:0.12"/>
		<stop  offset="1" style="stop-color:#808080;stop-opacity:0.1"/>
	</linearGradient>
	<path class="st6" d="M526.2,466.5c-8.6-31.1-57.2-53.8-93.8-58.9c0-0.2,0-0.5,0-0.7v-26.6c0,0,0.1,0,0.1,0v-1
		c26.3-9.8,46.6-31.1,55.2-57.8c2.3-4.1,4.2-8.3,5.9-12.7c3.9-1.4,6.9-7.9,6.9-15.6c0-2.6-0.4-5.3-1.1-7.8c0.5-3.9,0.7-7.9,0.7-11.9
		c0-28.1-11.9-54.8-32.7-73.6c0.3-1.6,0.4-3.2,0.3-4.8c-0.8-12.8-14.5-21.5-27.3-22.1c6.9-7.8,8.7-18.9,4.6-28.5
		c-8.2,11.9-24.9,13.2-39.3,13.2c6.2-2.4,9-11,5.4-16.6c-15.1,20.2-44.5,23.9-62.4,41.7c-3.9,3.9-7.2,8.3-9.7,13.2
		c-23.6,18.8-37.3,47.3-37.3,77.5c0,3.9,0.2,7.9,0.7,11.8c-0.8,2.6-1.2,5.2-1.1,7.9c0,7.8,3,14.2,6.9,15.6c1.7,4.4,3.6,8.6,5.9,12.7
		c8.5,26.6,28.7,47.8,54.8,57.6v27.8c0,0.2,0,0.4,0,0.6c-36.7,5-85.7,27.9-94.2,59.2c-7.3,27.1-15.2,56.8-19.1,74.3
		c33.4,23.5,103.5,37.3,147.4,37.3c41.7,0,110-12.4,142.4-33.8C541.9,525.4,533.9,494.3,526.2,466.5z"/>
</g>
<path class="st1" d="M403,570.6c40.3,0,106.1-12,137.4-32.6c-3.4-18.5-11.2-48.5-18.6-75.3c-9.4-34.1-68.8-57.8-104.2-57.8h-34.1
	c-35.5,0-95,23.8-104.3,58.1c-7.1,26.1-14.6,54.8-18.4,71.7C293,557.4,360.6,570.6,403,570.6z"/>
<circle class="st0" cx="400.9" cy="276.5" r="95.7"/>
<path class="st4" d="M370,356.2h61.3l0,0v49.1c0,16.9-13.7,30.7-30.7,30.7h0c-16.9,0-30.7-13.7-30.7-30.7L370,356.2L370,356.2z"/>
<path class="st7" d="M378.8,353.9h43.7c4.9,0,8.8,3.9,8.8,8.8V403c0,16.9-13.7,30.7-30.7,30.7h0c-16.9,0-30.7-13.7-30.7-30.7v-40.3
	C370,357.9,373.9,353.9,378.8,353.9z"/>
<path class="st4" d="M370.1,379.4c19.8,7.4,41.5,7.4,61.3,0.2V372h-61.3V379.4z"/>
<circle class="st7" cx="400.9" cy="295.5" r="87.9"/>
<path class="st4" d="M338.3,215.6c0,0,37.1,75.2,141.6,31.5l-24.3-38.2l-43.1-15.5L338.3,215.6z"/>
<path class="st0" d="M338.3,214.5c0,0,37,75.2,141.6,31.5l-24.3-38.2l-43.1-15.5L338.3,214.5z"/>
<path class="st0" d="M337.9,209.4c2.5-7.7,6.8-14.8,12.6-20.5c17.3-17.1,45.6-20.7,60.2-40.2c3.5,5.4,0.8,13.7-5.2,16.1
	c13.9-0.1,30.1-1.3,38-12.8c4,9.3,2.3,20-4.4,27.5c12.3,0.6,25.5,8.9,26.3,21.3c0.5,8.2-4.6,16-11.4,20.7c-6.8,4.7-14.9,6.9-23,8.6
	C407.6,235.3,322.6,257,337.9,209.4z"/>
<ellipse class="st7" cx="312.9" cy="295.5" rx="8.2" ry="15.3"/>
<ellipse class="st7" cx="488.8" cy="295.5" rx="8.2" ry="15.3"/>
<g class="st2">
	
		<linearGradient id="SVGID_3_" gradientUnits="userSpaceOnUse" x1="400" y1="154.0428" x2="400" y2="349.9532" gradientTransform="matrix(1 0 0 -1 0 802)">
		<stop  offset="0" style="stop-color:#808080;stop-opacity:0.25"/>
		<stop  offset="0.5351" style="stop-color:#808080;stop-opacity:0.12"/>
		<stop  offset="1" style="stop-color:#808080;stop-opacity:0.1"/>
	</linearGradient>
	<path class="st8" d="M241.8,452h316.3c6.6,0,11.9,5.3,11.9,11.9v172c0,6.6-5.3,11.9-11.9,11.9H241.8c-6.6,0-11.9-5.3-11.9-11.9V464
		C229.9,457.4,235.2,452,241.8,452z"/>
</g>
<path class="st0" d="M258.2,455.7h283.7c12.2,0,22.1,9.9,22.1,22.1v148.1c0,12.2-9.9,22.1-22.1,22.1H258.2
	c-12.2,0-22.1-9.9-22.1-22.1V477.8C236.1,465.6,245.9,455.7,258.2,455.7z"/>
<circle class="st9" cx="400" cy="551.8" r="11.1"/>
<rect x="33.9" y="675.1" class="st5" width="732.2" height="11.1"/>
<rect x="33.9" y="675.1" class="st4" width="732.2" height="3.7"/>
<path class="st4" d="M724.2,578.9v57c0,6.6-5.4,12-12,12h6.2c6.6,0,12-5.4,12-12v-57H724.2z"/>
<path class="st10" d="M685.8,533c-1,0.2-2.2,0.5-2.7,1.4c-0.8,1.5,0.7,3.1,2,4.1c2.5,1.9,5.1,3.7,6.8,6.3c1.7,2.6,2.2,6.2,0.4,8.7
	c-2.4,3.2-8.1,3.9-8.7,7.9c-0.4,2.6,1.9,4.8,4.1,6c5.6,3.2,12.7,4,16.7,9c1.7-3.4,5.4-5.4,9.1-6.2c3.7-0.8,7.6-0.8,11.3-1.4
	c1.2-0.2,2.6-0.6,3.1-1.7c1.1-2.1-1.9-4.7-0.9-6.8c0.8-1.6,3.1-1.5,4.8-2.2c2.7-1.1,3.9-4.6,3.1-7.4c-0.8-2.8-3-5.1-5.3-6.9
	c-6.2-4.9-13.8-7.8-21.4-9.9c-3.5-1-7.7-2.5-11.3-2.6C693.4,531.3,689.3,532.4,685.8,533z"/>
<g transform="translate(0.000000,640.000000) scale(0.100000,-0.100000)">
	<path class="st0" d="M4449.5,3759.9c-54.7-3.1-100.3-9.3-215.7-30.1c-123.2-22.2-167.7-27.1-234.5-26.1
		c-61.2,0.9-89.9,5.5-187.2,28.7c-55.6,13.5-69.5,16.4-92.6,20.2c-38.5,6.6-90.2,14.2-123.6,18.2c-62,7.5-125.1,7.7-218.2,1.3
		c-117.4-8.3-157.8-9.2-213-4.8l-12.4,1.2l0.3-20.6c1.2-52.6,10.3-123.1,19.6-149.3c5-14.4,8-18.8,26.7-37.8
		c16.4-16.9,16.9-17.3,19.8-28c2-6.1,5.2-19.1,7.8-29.5c10-41.1,28.4-94.3,55.5-157.8c17.7-42.1,24.1-54.8,34.5-67.7
		c48.5-62.7,165.3-101.6,285.3-95.3c57.9,3.1,94.9,11,129.7,27.4c63.1,30.3,111.7,80.5,160.1,167.2c19.3,34.6,24.2,46.3,36.5,89.1
		c10.2,35,14.8,48.3,23.4,64.8c11.7,23.3,16.9,25.6,56.5,22.7c24.8-1.6,25.2-1.9,30.9-5.9c14.4-10.4,26.2-33.9,37.9-75.6
		c13-45.9,21.5-69,37.5-103.8c38.2-81.5,86.9-133.1,156.7-164.6c99.8-45.5,222.9-47.1,315.3-4.3c33,14.9,58.1,32.4,80.5,55.1
		c28.8,29.1,48.4,61.7,64.6,107.8c5.8,16.6,9.4,28.9,22,75.4c12.9,47.6,19.4,67.9,25.2,78.2c4.8,8.9,13.6,17.2,25.9,23.9
		c12.2,7.1,15.3,10.3,22,23c20.4,38.7,41,116.2,38.9,147.7c-0.7,11.8-4.7,21.2-10.8,25.6c-3.5,2.3-7.1,3-20,4.2
		c-17.2,1.4-64.4,1.2-85.1-0.6c-7.5-0.6-28-1.2-45.4-1.5c-25.4-0.1-35.3,0.2-47.5,2.2c-8.5,1.3-30.7,4.8-49.3,7.5
		c-18.6,2.8-42.8,6.4-54.1,7.7C4528.5,3759.4,4473.6,3761,4449.5,3759.9z M3669.3,3718c57.7-7.7,124.5-28.4,159.7-49.2
		c23.2-13.7,40.7-30,50.8-46.6c26.5-46.1,12.9-116.1-44.1-227.2c-19.7-38.2-35.8-60.5-61.6-85.2c-42-40.3-94-64-159.5-73.2
		c-21.4-3.1-80.6-2-104.1,1.7c-20.6,3.3-47.1,9-61.2,13.5c-50,15.8-90.7,52.2-113.9,103.1c-8.3,18-19.9,56.1-29,93.4
		c-15.3,63.4-20.9,138.4-12.3,173.2c12.1,50.7,59.6,79,152.8,91c21.4,2.8,72,7.3,94.4,8.6c11.4,0.7,23.2,1.4,26,1.4
		C3580.7,3723.2,3653.2,3720.3,3669.3,3718z M4477.7,3704.1c113.3-12,160.9-24.1,197.1-50.4c31.8-22.5,42.4-52,39.3-108.3
		c-3.1-55.9-15.6-113.4-38.7-179.8c-13.9-39.8-27.3-62.2-50-85.7c-28.8-28.7-57.8-43.9-103.4-52.9c-39.8-7.9-89.4-10.3-125.6-6.6
		c-80.8,9-148,44.8-194.9,103.8c-23.3,29.9-48.8,80.5-70.4,141.2c-18,50.4-23.2,94.5-15.6,124.4c14.1,53.7,69.6,87.4,179.4,109.4
		c18.2,3.5,55.3,7.9,73,8.6C4386.3,3709,4455.2,3706.3,4477.7,3704.1z"/>
</g>
</svg>
