<?xml version="1.0" encoding="utf-8"?>
<!-- Generator: Adobe Illustrator 21.0.2, SVG Export Plug-In . SVG Version: 6.00 Build 0)  -->
<svg version="1.1" id="Layer_1" xmlns="http://www.w3.org/2000/svg" xmlns:xlink="http://www.w3.org/1999/xlink" x="0px" y="0px"
	 viewBox="0 0 800 800" style="enable-background:new 0 0 800 800;" xml:space="preserve">
<style type="text/css">
	.st0{opacity:0.1;fill:#216A61;enable-background:new    ;}
	.st1{opacity:0.2;fill:#216A61;enable-background:new    ;}
	.st2{fill:#216A61;}
	.st3{opacity:0.7;fill:#216A61;enable-background:new    ;}
	.st4{opacity:0.4;fill:#216A61;enable-background:new    ;}
	.st5{fill:#767D9F;}
	.st6{fill:#F8BD9E;}
	.st7{fill:#4D7B80;}
	.st8{fill:#162B29;}
	.st9{fill:#9C9CA1;}
	.st10{fill:#799CA0;}
	.st11{opacity:5.000000e-02;enable-background:new    ;}
	.st12{opacity:0.1;enable-background:new    ;}
	.st13{fill:#FFFFFF;}
	.st14{opacity:0.1;stroke:#4C4981;stroke-miterlimit:10;enable-background:new    ;}
</style>
<path class="st0" d="M800,459.1c0,11.7-1.6,23.4-4.8,34.7c-3.1,10.9-7.6,21.3-13.5,31c0,35-23.7,65.3-58,79.7c-14.3,6-29.7,9-45.3,9
	H151.9c-28.1,0-54.2-7.6-75.6-20.5c-6.1-3.7-11.9-7.9-17.4-12.5c-23.8-20.4-38.5-48.7-38.5-79.9C7,480-0.1,456,0,431.5
	c0-51.3,30.3-95.4,73.8-114.9c5.8-2.6,11.7-4.7,17.8-6.4c2.2-0.6,4.3-1.1,6.5-1.6c5.9-1.3,11.8-2.1,17.8-2.4
	c2.2-0.1,4.3-0.2,6.5-0.2h1.2c2.4,0,4.8,0.1,7.2,0.2l0.8-1.3c1-1.6,1.9-3.2,3-4.8c1.8-2.9,3.7-5.7,5.7-8.5c2.1-2.9,4.3-5.8,6.5-8.7
	l0.6-0.7c1.3-1.6,2.6-3.2,3.9-4.8c4.2-4.9,8.6-9.6,13.3-14.2C215.2,213.9,294.2,182,383,182c69.1,0,132.3,19.3,180.7,51.1
	c18.3-10.4,39-15.8,60.1-15.8c68.3,0,123.8,56.2,123.8,125.5c0,4.4-0.2,8.8-0.7,13.1C780.3,379.7,800.1,418.1,800,459.1z"/>
<path class="st1" d="M164.8,263.3v14.2h-13.3C155.7,272.6,160.1,267.9,164.8,263.3z"/>
<rect x="171.3" y="259.6" class="st1" width="17.8" height="17.8"/>
<rect x="195.7" y="259.6" class="st1" width="17.8" height="17.8"/>
<rect x="220.1" y="259.6" class="st1" width="17.8" height="17.8"/>
<rect x="244.5" y="259.6" class="st1" width="17.8" height="17.8"/>
<rect x="268.9" y="259.6" class="st1" width="17.8" height="17.8"/>
<rect x="293.3" y="259.6" class="st2" width="17.8" height="17.8"/>
<rect x="317.6" y="259.6" class="st1" width="17.8" height="17.8"/>
<rect x="342" y="259.6" class="st1" width="17.8" height="17.8"/>
<rect x="366.4" y="259.6" class="st1" width="17.8" height="17.8"/>
<rect x="390.8" y="259.6" class="st2" width="17.8" height="17.8"/>
<rect x="415.2" y="259.6" class="st1" width="17.8" height="17.8"/>
<rect x="439.5" y="259.6" class="st1" width="17.8" height="17.8"/>
<rect x="463.9" y="259.6" class="st1" width="17.8" height="17.8"/>
<rect x="488.3" y="259.6" class="st1" width="17.8" height="17.8"/>
<rect x="512.7" y="259.6" class="st1" width="17.8" height="17.8"/>
<rect x="537.1" y="259.6" class="st1" width="17.8" height="17.8"/>
<rect x="561.4" y="259.6" class="st2" width="17.8" height="17.8"/>
<rect x="585.8" y="259.6" class="st2" width="17.8" height="17.8"/>
<rect x="610.2" y="259.6" class="st1" width="17.8" height="17.8"/>
<rect x="634.6" y="259.6" class="st1" width="17.8" height="17.8"/>
<rect x="659" y="259.6" class="st2" width="17.8" height="17.8"/>
<rect x="683.4" y="259.6" class="st2" width="17.8" height="17.8"/>
<path class="st2" d="M140.4,291.6v8.5h-5.7C136.5,297.2,138.4,294.4,140.4,291.6z"/>
<rect x="147" y="282.2" class="st1" width="17.8" height="17.8"/>
<rect x="171.3" y="282.2" class="st2" width="17.8" height="17.8"/>
<rect x="195.7" y="282.2" class="st1" width="17.8" height="17.8"/>
<rect x="220.1" y="282.2" class="st3" width="17.8" height="17.8"/>
<rect x="244.5" y="282.2" class="st1" width="17.8" height="17.8"/>
<rect x="268.9" y="282.2" class="st4" width="17.8" height="17.8"/>
<rect x="293.3" y="282.2" class="st2" width="17.8" height="17.8"/>
<rect x="317.6" y="282.2" class="st4" width="17.8" height="17.8"/>
<rect x="342" y="282.2" class="st1" width="17.8" height="17.8"/>
<rect x="366.4" y="282.2" class="st4" width="17.8" height="17.8"/>
<rect x="390.8" y="282.2" class="st2" width="17.8" height="17.8"/>
<rect x="415.2" y="282.2" class="st4" width="17.8" height="17.8"/>
<rect x="439.5" y="282.2" class="st4" width="17.8" height="17.8"/>
<rect x="463.9" y="282.2" class="st1" width="17.8" height="17.8"/>
<rect x="488.3" y="282.2" class="st4" width="17.8" height="17.8"/>
<rect x="512.7" y="282.2" class="st4" width="17.8" height="17.8"/>
<rect x="537.1" y="282.2" class="st1" width="17.8" height="17.8"/>
<rect x="561.4" y="282.2" class="st1" width="17.8" height="17.8"/>
<rect x="585.8" y="282.2" class="st4" width="17.8" height="17.8"/>
<rect x="610.2" y="282.2" class="st1" width="17.8" height="17.8"/>
<rect x="634.6" y="282.2" class="st2" width="17.8" height="17.8"/>
<rect x="659" y="282.2" class="st2" width="17.8" height="17.8"/>
<rect x="683.4" y="282.2" class="st2" width="17.8" height="17.8"/>
<path class="st1" d="M91.7,310.2v12.5H73.8v-6.1C79.6,314,85.5,311.9,91.7,310.2z"/>
<polygon class="st1" points="116,306.2 116,322.7 98.2,322.7 98.2,308.6 "/>
<rect x="122.6" y="304.8" class="st2" width="17.8" height="17.8"/>
<rect x="147" y="304.8" class="st3" width="17.8" height="17.8"/>
<rect x="171.3" y="304.8" class="st2" width="17.8" height="17.8"/>
<rect x="195.7" y="304.8" class="st3" width="17.8" height="17.8"/>
<rect x="220.1" y="304.8" class="st3" width="17.8" height="17.8"/>
<rect x="244.5" y="304.8" class="st1" width="17.8" height="17.8"/>
<rect x="268.9" y="304.8" class="st4" width="17.8" height="17.8"/>
<rect x="293.3" y="304.8" class="st4" width="17.8" height="17.8"/>
<rect x="317.6" y="304.8" class="st2" width="17.8" height="17.8"/>
<rect x="342" y="304.8" class="st1" width="17.8" height="17.8"/>
<rect x="366.4" y="304.8" class="st4" width="17.8" height="17.8"/>
<rect x="390.8" y="304.8" class="st2" width="17.8" height="17.8"/>
<rect x="415.2" y="304.8" class="st1" width="17.8" height="17.8"/>
<rect x="439.5" y="304.8" class="st4" width="17.8" height="17.8"/>
<rect x="463.9" y="304.8" class="st1" width="17.8" height="17.8"/>
<rect x="488.3" y="304.8" class="st2" width="17.8" height="17.8"/>
<rect x="512.7" y="304.8" class="st1" width="17.8" height="17.8"/>
<rect x="537.1" y="304.8" class="st3" width="17.8" height="17.8"/>
<rect x="561.4" y="304.8" class="st3" width="17.8" height="17.8"/>
<rect x="585.8" y="304.8" class="st4" width="17.8" height="17.8"/>
<rect x="610.2" y="304.8" class="st1" width="17.8" height="17.8"/>
<rect x="634.6" y="304.8" class="st2" width="17.8" height="17.8"/>
<rect x="659" y="304.8" class="st2" width="17.8" height="17.8"/>
<rect x="683.4" y="304.8" class="st2" width="17.8" height="17.8"/>
<rect x="73.8" y="327.4" class="st1" width="17.8" height="17.8"/>
<rect x="98.2" y="327.4" class="st1" width="17.8" height="17.8"/>
<rect x="122.6" y="327.4" class="st1" width="17.8" height="17.8"/>
<rect x="147" y="327.4" class="st1" width="17.8" height="17.8"/>
<rect x="171.3" y="327.4" class="st2" width="17.8" height="17.8"/>
<rect x="195.7" y="327.4" class="st3" width="17.8" height="17.8"/>
<rect x="220.1" y="327.4" class="st3" width="17.8" height="17.8"/>
<rect x="244.5" y="327.4" class="st1" width="17.8" height="17.8"/>
<rect x="268.9" y="327.4" class="st1" width="17.8" height="17.8"/>
<rect x="293.3" y="327.4" class="st4" width="17.8" height="17.8"/>
<rect x="317.6" y="327.4" class="st4" width="17.8" height="17.8"/>
<rect x="342" y="327.4" class="st2" width="17.8" height="17.8"/>
<rect x="366.4" y="327.4" class="st1" width="17.8" height="17.8"/>
<rect x="390.8" y="327.4" class="st4" width="17.8" height="17.8"/>
<rect x="415.2" y="327.4" class="st4" width="17.8" height="17.8"/>
<rect x="439.5" y="327.4" class="st4" width="17.8" height="17.8"/>
<rect x="463.9" y="327.4" class="st4" width="17.8" height="17.8"/>
<rect x="488.3" y="327.4" class="st1" width="17.8" height="17.8"/>
<rect x="512.7" y="327.4" class="st1" width="17.8" height="17.8"/>
<rect x="537.1" y="327.4" class="st1" width="17.8" height="17.8"/>
<rect x="561.4" y="327.4" class="st1" width="17.8" height="17.8"/>
<rect x="585.8" y="327.4" class="st3" width="17.8" height="17.8"/>
<rect x="610.2" y="327.4" class="st3" width="17.8" height="17.8"/>
<rect x="634.6" y="327.4" class="st4" width="17.8" height="17.8"/>
<rect x="659" y="327.4" class="st1" width="17.8" height="17.8"/>
<rect x="683.4" y="327.4" class="st2" width="17.8" height="17.8"/>
<rect x="73.8" y="350" class="st1" width="17.8" height="17.8"/>
<rect x="98.2" y="350" class="st1" width="17.8" height="17.8"/>
<rect x="122.6" y="350" class="st4" width="17.8" height="17.8"/>
<rect x="147" y="350" class="st1" width="17.8" height="17.8"/>
<rect x="171.3" y="350" class="st1" width="17.8" height="17.8"/>
<rect x="195.7" y="350" class="st3" width="17.8" height="17.8"/>
<rect x="220.1" y="350" class="st3" width="17.8" height="17.8"/>
<rect x="244.5" y="350" class="st1" width="17.8" height="17.8"/>
<rect x="268.9" y="350" class="st1" width="17.8" height="17.8"/>
<rect x="293.3" y="350" class="st4" width="17.8" height="17.8"/>
<rect x="317.6" y="350" class="st2" width="17.8" height="17.8"/>
<rect x="342" y="350" class="st1" width="17.8" height="17.8"/>
<rect x="366.4" y="350" class="st2" width="17.8" height="17.8"/>
<rect x="390.8" y="350" class="st2" width="17.8" height="17.8"/>
<rect x="415.2" y="350" class="st2" width="17.8" height="17.8"/>
<rect x="439.5" y="350" class="st1" width="17.8" height="17.8"/>
<rect x="463.9" y="350" class="st2" width="17.8" height="17.8"/>
<rect x="488.3" y="350" class="st1" width="17.8" height="17.8"/>
<rect x="512.7" y="350" class="st1" width="17.8" height="17.8"/>
<rect x="537.1" y="350" class="st1" width="17.8" height="17.8"/>
<rect x="561.4" y="350" class="st1" width="17.8" height="17.8"/>
<rect x="585.8" y="350" class="st1" width="17.8" height="17.8"/>
<rect x="610.2" y="350" class="st3" width="17.8" height="17.8"/>
<rect x="634.6" y="350" class="st1" width="17.8" height="17.8"/>
<rect x="659" y="350" class="st1" width="17.8" height="17.8"/>
<rect x="683.4" y="350" class="st2" width="17.8" height="17.8"/>
<rect x="73.8" y="372.6" class="st1" width="17.8" height="17.8"/>
<rect x="98.2" y="372.6" class="st1" width="17.8" height="17.8"/>
<rect x="122.6" y="372.6" class="st1" width="17.8" height="17.8"/>
<rect x="147" y="372.6" class="st4" width="17.8" height="17.8"/>
<rect x="171.3" y="372.6" class="st1" width="17.8" height="17.8"/>
<rect x="195.7" y="372.6" class="st1" width="17.8" height="17.8"/>
<rect x="220.1" y="372.6" class="st3" width="17.8" height="17.8"/>
<rect x="244.5" y="372.6" class="st1" width="17.8" height="17.8"/>
<rect x="268.9" y="372.6" class="st1" width="17.8" height="17.8"/>
<rect x="293.3" y="372.6" class="st1" width="17.8" height="17.8"/>
<rect x="317.6" y="372.6" class="st2" width="17.8" height="17.8"/>
<rect x="342" y="372.6" class="st1" width="17.8" height="17.8"/>
<rect x="366.4" y="372.6" class="st2" width="17.8" height="17.8"/>
<rect x="390.8" y="372.6" class="st2" width="17.8" height="17.8"/>
<rect x="415.2" y="372.6" class="st1" width="17.8" height="17.8"/>
<rect x="439.5" y="372.6" class="st1" width="17.8" height="17.8"/>
<rect x="463.9" y="372.6" class="st1" width="17.8" height="17.8"/>
<rect x="488.3" y="372.6" class="st1" width="17.8" height="17.8"/>
<rect x="512.7" y="372.6" class="st1" width="17.8" height="17.8"/>
<rect x="537.1" y="372.6" class="st1" width="17.8" height="17.8"/>
<rect x="561.4" y="372.6" class="st1" width="17.8" height="17.8"/>
<rect x="585.8" y="372.6" class="st1" width="17.8" height="17.8"/>
<rect x="610.2" y="372.6" class="st1" width="17.8" height="17.8"/>
<rect x="634.6" y="372.6" class="st1" width="17.8" height="17.8"/>
<rect x="659" y="372.6" class="st4" width="17.8" height="17.8"/>
<rect x="683.4" y="372.6" class="st2" width="17.8" height="17.8"/>
<rect x="73.8" y="395.2" class="st3" width="17.8" height="17.8"/>
<rect x="98.2" y="395.2" class="st3" width="17.8" height="17.8"/>
<rect x="122.6" y="395.2" class="st3" width="17.8" height="17.8"/>
<rect x="147" y="395.2" class="st3" width="17.8" height="17.8"/>
<rect x="171.3" y="395.2" class="st3" width="17.8" height="17.8"/>
<rect x="195.7" y="395.2" class="st1" width="17.8" height="17.8"/>
<rect x="220.1" y="395.2" class="st1" width="17.8" height="17.8"/>
<rect x="244.5" y="395.2" class="st1" width="17.8" height="17.8"/>
<rect x="268.9" y="395.2" class="st1" width="17.8" height="17.8"/>
<rect x="293.3" y="395.2" class="st1" width="17.8" height="17.8"/>
<rect x="317.6" y="395.2" class="st1" width="17.8" height="17.8"/>
<rect x="342" y="395.2" class="st2" width="17.8" height="17.8"/>
<rect x="366.4" y="395.2" class="st1" width="17.8" height="17.8"/>
<rect x="390.8" y="395.2" class="st1" width="17.8" height="17.8"/>
<rect x="415.2" y="395.2" class="st1" width="17.8" height="17.8"/>
<rect x="439.5" y="395.2" class="st2" width="17.8" height="17.8"/>
<rect x="463.9" y="395.2" class="st1" width="17.8" height="17.8"/>
<rect x="488.3" y="395.2" class="st1" width="17.8" height="17.8"/>
<rect x="512.7" y="395.2" class="st1" width="17.8" height="17.8"/>
<rect x="537.1" y="395.2" class="st1" width="17.8" height="17.8"/>
<rect x="561.4" y="395.2" class="st1" width="17.8" height="17.8"/>
<rect x="585.8" y="395.2" class="st1" width="17.8" height="17.8"/>
<rect x="610.2" y="395.2" class="st1" width="17.8" height="17.8"/>
<rect x="634.6" y="395.2" class="st1" width="17.8" height="17.8"/>
<rect x="659" y="395.2" class="st1" width="17.8" height="17.8"/>
<rect x="683.4" y="395.2" class="st2" width="17.8" height="17.8"/>
<circle class="st5" cx="513.7" cy="436.5" r="24.4"/>
<path class="st6" d="M512.4,405.5c2.4,10.6,4.5,21.3,6.2,32.1c0.5,3.2,1,6.6-0.2,9.6c-1,2.5-3,4.5-4.5,6.7c-1.6,2.2-2.7,5-1.8,7.6
	c0.9,2.5,3.7,3.9,6.3,4.6c7.5,2,15.5,0.6,23-1.6c3.4-0.9,6.6-2.2,9.7-4c3.2-2,5.8-4.8,8.2-7.7c10.9-13.2,18.1-29.1,24.8-44.9
	c-8.8,0.8-17.4-2.7-23.2-9.3c-2.8-3.2-4.8-7.7-3.2-11.7c-4.6,2.5-10,2.7-14.9,4.4c-3,1.2-6,2.6-8.7,4.3c-3.3,1.9-6.7,3.9-10,5.9
	C520.3,403.7,516.8,405.7,512.4,405.5z"/>
<path class="st7" d="M563.4,423.8c-4.3,8.3-9.8,16.3-17.8,21.3c-7.9,5-18.6,6.3-26.6,1.4c-3.9-2.4-6.9-6-10.3-9.1
	c-3.4-3.1-7.7-5.7-12.3-5.3c-5.1,0.4-9,4.4-12.4,8.2c-5.1,5.7-10.1,11.7-13.8,18.5c-7,13.1-8.7,28.4-8.3,43.2
	c0.3,14.8,2.5,29.6,2.5,44.4c0.1,18.2-3,36.3-6.1,54.3c28.7-3.5,57.5,4.2,86.3,7.1c18.4,1.9,37,1.9,55.5,1.8c3.3,0,6.7-0.1,9.4-1.9
	c1.7-1.2,3-2.8,3.9-4.6c2.6-4.7,3.6-10.1,4.3-15.4c1.8-13.4,1.9-27,1.9-40.6c0.1-32.9,0.2-65.9-3.9-98.5c-1-8-2.3-16.1-5.4-23.6
	c-3.1-7.5-8.1-14.4-15.1-18.4c-4.5-2.6-15-7.1-20.3-4.5C569,405,566.2,418.2,563.4,423.8z"/>
<path class="st2" d="M565.5,516.6c-1.1-20.3-5.5-41.9,3.9-59.9c2.3-4.4-6-9.9-3.4-14.2c3.1-5.2,5.5-10.9,7-16.7c0.5-2,1-4.2,0.5-6.2
	c-0.9-3.7-4.6-5.9-7.7-8.2c-3.4-2.5-5.2-10.1-6.3-14.2c-1.1-4.1,8.8,0.8,12.8-0.6c5.5-2,12.5-0.7,18.1,1.3c3.1,1.1,6.4,1.2,9.7,1.3
	c6.4,0.2,12.8,0.3,19.1-0.5c2.8-0.4,5.7-0.9,8.5-0.7c7.3,0.4,13.6,5.4,17.9,11.3c4.3,5.9,7,12.7,10.6,19.1c2.9,5.3,6.5,10.3,9,15.9
	c2.2,4.9,3.6,10.2,5,15.4l3.6,13.4c0.6,1.9,0.9,3.9,0.9,6c-0.2,2.1-1.1,4.1-2.1,6.1c-3.6,7.1-8,13.8-13.1,19.9
	c-7.5,9.3-16.7,17.6-21.2,28.7c-1.7,4.3-2.7,8.9-3.6,13.5c-3.6,18.3-6.1,36.8-7.6,55.3c-8.2-3.8-16.7-6.6-25.5-8.5
	c-4.4-0.9-8.8-1.6-13.3-2.1c-3.9-0.4-9,0.4-12.7-0.7c-6.2-1.8-6.9-12.3-7.9-17.8c-1.5-8.8-1.8-17.7-1.9-26.6
	C565.7,536.7,566,526.6,565.5,516.6z"/>
<path class="st2" d="M428.8,478.7c2.9,16.8,6.2,33.6,12.6,49.4c-0.2,0.2-0.3,0.3-0.5,0.4c-0.6,0.5-1.2,0.9-1.8,1.4
	c-1.4,1-3,1.9-4.2,3.2c-0.5,0.5-0.8,1.1-1,1.7c-0.4,1-0.4,2.1,0,3.1c-3.3,1.5-7.2,1-11,0.9c-3.2-0.1-6.3,0-8.9,1.8
	c-3.6,2.5-4.7,7.2-5.3,11.6c-0.2,1.6-0.4,3.2-0.6,4.7c-0.1,1.5-0.3,2.9-0.4,4.4c-0.3,4.9-0.4,9.8-0.1,14.7c0,0.9,0.1,1.8,0.1,2.7
	c-11.4-0.3-21.8-6.2-31.7-12c-2.3-1.3-4.6-2.7-6-4.9c-1.3-2.1-1.9-4.7-1.6-7.2c0-0.4,0.1-0.7,0.1-1.1c0.3-2.1,0.9-4.1,1.6-6.1
	c3.1-8.3,7.6-16.1,13.4-22.8c2.5-2.9,5.3-5.8,6.5-9.5c0.5-1.6,0.7-3.3,1.2-4.9c2.3-6.9,10.7-10.2,13.6-16.9c0.7-1.6,1-3.4,1.9-4.9
	c0.8-1.3,1.8-2.4,3-3.3c0.5-0.4,1-0.8,1.6-1.3c4.9-3.9,9.6-7.9,14.2-12.2c0.8-0.8,1.7-1.6,2.5-2.4
	C428,472.4,428.2,475.5,428.8,478.7z"/>
<path class="st2" d="M499.3,429c-1,1.1-2.1,2.1-3.2,3.1l-0.3,0.3l-1.1,1c-2.1,1.8-3.8,3.8-5.3,6.1l-0.1,0.2
	c-3.6,6.4-2.2,14.2-1.3,21.5c1.2,9,1.8,18.2,1.7,27.3c-0.2,12.6-1.7,25.1-1.7,37.7c0,2.9,0.1,5.7,0.2,8.6c0.2,4.6,0.6,9.3,1,13.9
	c0.5,5.1,1,10.1,1.5,15.2c0.4,3.9,0.8,7.8,1.1,11.8c0.2,2,0.3,4,0.4,6.1c0.1,2.4,0.3,4.8,0.3,7.1l0,0c0,1.5,0.1,3,0.1,4.5
	c0,0.9,0,1.7,0,2.6c0,1.6,0,3.3-0.1,4.9c-0.1,2.1-0.2,4.2-0.4,6.3c-0.2,2.3-0.6,4.8-2.2,6.4c-0.1,0.1-0.2,0.2-0.3,0.3l-2.3-0.3
	c-15.6-1.9-31.4-2.2-47.1-0.8c0.3-2.4,0.7-4.7,1-7.1c0.1-1.1,0.3-2.2,0.4-3.4c0.2-1.3,0.3-2.6,0.4-3.9c0.2-1.4,0.3-2.8,0.4-4.2
	c0.4-3.6,0.7-7.2,1-10.8c0.4-5.3,0.7-10.5,0.9-15.8c0.1-2.5,0.2-5,0.2-7.6c0.1-3.1,0.1-6.3,0.1-9.4c0-3,0-6.1-0.1-9.2c0-1,0-2-0.1-3
	c-0.1-0.9-0.2-1.8-0.4-2.7c-0.5-2-1.2-4-2.1-5.9c-0.2-0.4-0.3-0.7-0.4-1.1c-0.1-0.2-0.2-0.4-0.2-0.6c4-3.6,6.9-8.4,9.7-13.1
	c4.5-7.6,9-15.6,9.8-24.4c0.7-8.8-3.6-18.7-12-21.4c-2.3-0.7-4.7-0.9-7.1-1.3c-2.2-0.4-6.9-1.3-9.4-2.9c-1.4,1.4-2.8,2.8-4.2,4.2
	c0.1-2.1,0.6-4.2,1.5-6.1l1,0c-0.1-0.2-0.1-0.5-0.1-0.7c0-0.7,0.5-1.6,1.6-2.5c3.3-2.8,8.5-3.4,10.6-7.2c0.9-1.6,1-3.4,1.7-5.1
	c2-4.7,7.8-6.4,11.2-10.2s4.3-9.1,7.1-13.3c2.1-3.1,5-5.5,8.4-7c0.3-0.1,0.6-0.3,0.9-0.4c5.8-2.5,12.7-3,18.7-3
	c2.3,0,8.4,0.1,11.4,1.3c0.5,0.2,0.9,0.4,1.3,0.8C506.6,419.3,501.6,426.5,499.3,429z"/>
<path class="st2" d="M429.9,462.7c10.9-3.3,22.7-2.1,32.7,3.4c5,2.8,9.6,6.7,12.3,11.7c4.2,7.6,4,16.7,3.7,25.3
	c-0.1,4.3-0.3,8.8-2.2,12.7c-2.2,4.5-6.4,7.6-10.6,10.1c-2.7,1.7-5.6,3-8.6,3.7c-4.7,1-9.6,0.2-14.3-0.7c-5.1-1-10.7-2.1-14.2-5.9
	c-2.1-2.2-3.2-5.1-4.4-7.9c-1.6-4.1-3.3-8.2-4.9-12.2c-2.8-7.1-3.8-13,0-19.8c1.7-3.1,3.8-6.1,5.5-9.2
	C425.5,472.1,428.5,463.1,429.9,462.7z"/>
<path class="st8" d="M723.8,583.6v20.9c-14.3,6-29.7,9-45.3,9H489.9c-0.1,0.1-0.2,0.2-0.3,0.3l-2.3-0.3H151.9
	c-28.1,0-54.2-7.6-75.6-20.5V561l161.3-18.6h0.1l94,8l24.3,2.1l12.6,1.1l26.1,2.2l13.4,1.1l19.6,1.7l2.8,0.2l14.1,1.2l19.1,1.6
	l26.9,2.3l44.9,3.8l31.6,2.7l51.8,4.4l9.9,0.8l1.1,0.1l0.9,0.1l13,1.1l14.3,1.2l1.7,0.1L723.8,583.6z"/>
<polygon class="st9" points="534.3,582.8 332.1,548.3 324.2,587.9 416.9,599 445.5,602.6 524,587.1 "/>
<path class="st10" d="M429.6,600.6l101.3-19c1.9-0.4,3.7,0.9,4.1,2.8c0,0.2,0.1,0.4,0.1,0.7l0,0c0,1.7-1.2,3.1-2.9,3.4L433.3,607
	L429.6,600.6z"/>
<path class="st6" d="M473.5,540.7c3.2-0.3,6.3-0.8,9.2-2.2c3.5-1.7,6.2-4.7,9.5-7c7.1-4.9,16.6-5.6,24.8-2.7c8.2,2.8,15,8.8,19.7,16
	c3.2,4.8,5.5,10.9,3.3,16.2c-0.8,1.6-1.7,3.1-2.9,4.5l-5.8,7.6c-1.1,1.6-2.4,3-4,4.3c-2.2,1.6-4.9,2.2-7.6,2.6
	c-7.1,1-14.3,0.4-21.5,0.9c-12.3,0.8-24.3,4.8-36.6,4.6c-7.1-0.1-14.1-1.5-21-2.9l-30.6-6.3c-5.3-1.1-11.3-2.7-13.9-7.5
	c-1.1-2.2-1.3-4.7-1.5-7.1c-0.4-6.7,0-14.2,4.7-19.1c4.4-4.6,11.3-6,16.6-9.4c6.4-4.1,8.5-2.8,15.3,0.3
	C444.6,539.6,459.1,542,473.5,540.7z"/>
<path class="st11" d="M473.5,540.7c3.2-0.3,6.3-0.8,9.2-2.2c3.5-1.7,6.2-4.7,9.5-7c7.1-4.9,16.6-5.6,24.8-2.7
	c8.2,2.8,15,8.8,19.7,16c3.2,4.8,5.5,10.9,3.3,16.2c-0.8,1.6-1.7,3.1-2.9,4.5l-5.8,7.6c-1.1,1.6-2.4,3-4,4.3
	c-2.2,1.6-4.9,2.2-7.6,2.6c-7.1,1-14.3,0.4-21.5,0.9c-12.3,0.8-24.3,4.8-36.6,4.6c-7.1-0.1-14.1-1.5-21-2.9l-30.6-6.3
	c-5.3-1.1-11.3-2.7-13.9-7.5c-1.1-2.2-1.3-4.7-1.5-7.1c-0.4-6.7,0-14.2,4.7-19.1c4.4-4.6,11.3-6,16.6-9.4c6.4-4.1,8.5-2.8,15.3,0.3
	C444.6,539.6,459.1,542,473.5,540.7z"/>
<path class="st6" d="M596.5,531.1c-8.6,3.3-17.2,6.7-26.2,8.6c-15.1,3.3-30.9,2.8-45.8,6.6c-7.9,2-15.8,5.3-23.9,4.6
	c-3.6-0.3-7.1-1.4-10.7-2.2c-19.8-4.9-42.4-3.3-58.5,9.3c-5.5,4.3-10,9.7-14.1,15.4c-3.3,4.6-2.2,11,2.4,14.3c0.5,0.4,1.1,0.7,1.7,1
	c6.3,2.9,13,4.7,19.8,5.3c9.2,0.8,18.4-0.5,27.5-1.8c13.6-1.9,27.1-3.9,40.6-6c4.9-0.8,9.7-1.6,14.6-2.2c35.1-4.4,70.9,1,106.1-2.7
	c3.6-0.4,7.2-0.9,10.4-2.4c8.2-3.8,12.3-14,10.6-22.9s-8.2-16.3-16.1-20.9c-6.6-3.8-13.7-5.4-21-7
	C607.2,526.5,603,528.6,596.5,531.1z"/>
<path class="st12" d="M671.8,477.9c3.9,5.1,4.7,11.9,4.3,18.2s-1.9,12.6-2.2,19c-0.3,8.8,1.8,17.5,1.4,26.2
	c-0.3,6.1-1.7,12.1-3.4,18c-2,6.9-4.9,14.3-11.3,17.7c-8.5,4.4-26.3,1.9-35.2,5.4c0.8-5.1,8.6-12.4,9.4-17.4
	c0.6-3.5,1.1-7.1,0.5-10.6c-0.8-4.5-3.4-8.4-6.5-11.7c-5-5.3-11.4-9.2-18.5-10.5c-7.1-1.3-24.5-0.2-30.2,4.3
	c-0.7-4.6,12.3-9.1,16.9-10.1c2.3-0.5,4.9-0.2,6.7-1.7c3.5-2.7,1-8.2,1.1-12.6c0.1-3.5,2.2-6.7,2.6-10.2c0.7-5.6-3-11.3-1.5-16.8
	c0.5-2,1.7-3.8,2.5-5.7c2.5-5.9,1.4-12.7,0.1-18.9c-0.8-3.9-1.6-8.4,0.6-11.8c2-3.1,7.8,8,11.5,7.5c12.2-1.7,23.3-10.8,33.1-3.4
	c5,3.8,5.7,7.7,7.7,13.1C663.5,471,668.5,473.6,671.8,477.9z"/>
<path class="st2" d="M673.9,477.9c3.9,5.1,4.7,11.9,4.3,18.2s-1.9,12.6-2.2,19c-0.3,8.8,1.8,17.5,1.4,26.2c-0.3,6.1-1.7,12.1-3.4,18
	c-2,6.9-4.9,14.3-11.3,17.7c-8.5,4.4-26.3,1.9-35.2,5.4c0.8-5.1,8.6-12.4,9.4-17.4c0.6-3.5,1.1-7.1,0.5-10.6
	c-0.8-4.5-3.4-8.4-6.5-11.7c-5-5.3-11.4-9.2-18.5-10.5c-7.1-1.3-24.5-0.2-30.2,4.3c-0.7-4.6,12.3-9.1,16.9-10.1
	c2.3-0.5,4.9-0.2,6.7-1.7c3.5-2.7,1-8.2,1.1-12.6c0.1-3.5,2.2-6.7,2.6-10.2c0.7-5.6-3-11.3-1.5-16.8c0.5-2,1.7-3.8,2.5-5.7
	c2.5-5.9,1.4-12.7,0.1-18.9c-0.8-3.9-1.6-8.4,0.6-11.8c2-3.1,6-4.3,9.7-4.9c12.4-1.7,24.9,1.6,35,9c5,3.8,5.7,7.7,7.7,13.1
	C665.6,471,670.6,473.6,673.9,477.9z"/>
<path class="st10" d="M211.2,444.8l38,140.5c1,3.5,4,6.1,7.6,6.4L428,608.2c4.8,0.5,9.1-3.1,9.6-7.9c0.1-1,0-2-0.2-2.9l-41.6-169.5
	c-1-4.2-4.9-7-9.2-6.7L219,433.7c-4.8,0.4-8.4,4.6-8.1,9.4C211,443.7,211,444.2,211.2,444.8z"/>
<ellipse class="st13" cx="550.4" cy="453.1" rx="18.8" ry="19.1"/>
<path class="st13" d="M565.9,418.4c0,0,4,11.8-7.7,16.7l-1.5,2.6l7.3,7.2c0,0,9-16.5,8.1-22.3C572,422.6,570.6,416.7,565.9,418.4z"
	/>
<circle class="st2" cx="552.6" cy="454" r="18.1"/>
<path class="st2" d="M572.1,425.3l-2.9-4.8l-4.2-0.6c0.9-15.7-3.2-20.3-3.2-20.3l-0.9-0.1l-4.1-0.4l-7.7-8v-2.3
	c10.9,1.3,16.9,6.5,20.1,12.5C574.9,411.9,572.1,425.3,572.1,425.3z"/>
<path class="st14" d="M561,396.6v2.9l-4.1-0.4l-7.7-8C549.1,391.1,561.1,393.8,561,396.6z"/>
<path class="st14" d="M572.1,425.3l-2.9-4.8v-19.2C574.9,411.9,572.1,425.3,572.1,425.3z"/>
<ellipse transform="matrix(0.866 -0.5 0.5 0.866 -154.466 314.6246)" class="st13" cx="509.9" cy="445.5" rx="10.1" ry="18.4"/>
<path class="st2" d="M512.6,444c5.1,8.8,11.3,14.7,6.5,17.5s-18.9,1.4-24-7.4s-0.5-21,4.4-23.8C504.3,427.5,507.5,435.2,512.6,444z"
	/>
<path class="st12" d="M557.9,380.6c0,28.1-19.3,55.2-47.4,55.2c-28.1,0-50.9-22.8-50.9-50.9c0-28.1,22.8-50.9,50.9-50.9
	C538.6,334,557.9,352.4,557.9,380.6z"/>
<circle class="st6" cx="510.5" cy="383.5" r="50.9"/>
<path class="st8" d="M506,360.9c6.1,2.2,9.7,8.5,15.1,12c7.7,4.9,17.7,3.6,26.5,1.2c4.9-1.3,10-3,14.8-1.5c0.7,0.3,1.5,0.4,2.3,0.3
	c1-0.3,1.6-1.5,1.9-2.5c6-17.8,3.3-37.9-5.7-54.3c-2.3-4.2-5.1-8.3-8.9-11.3c-3-2.3-6.6-3.8-10.2-5.1c-6.5-2.3-13.3-4-20.2-5
	c-1.2-0.2-2.5-0.3-3.7-0.1c-1.7,0.3-3.2,1.2-4.7,2c-6.4,3.5-13.6,5.4-20.9,5.7c-9.8,0.4-21-1.9-28.5,4.3
	c-9.1,7.5-6.8,22.2-12.7,32.4c-3.9,6.8-11.4,11.7-12.7,19.4c-0.3,2.4-0.2,4.7,0.4,7c2.9,11.8,14.3,21,26.6,21.2
	c1.9,0.1,3.8-0.2,5.4-1.1c1.1-0.7,2.1-1.7,2.9-2.7C481.7,373.4,490.9,355.4,506,360.9z"/>
<path class="st12" d="M566.6,365.3c-0.3,1-0.9,2.2-1.9,2.5c-0.8,0.1-1.5,0-2.3-0.3c-4.8-1.5-10,0.1-14.8,1.5
	c-8.8,2.4-18.8,3.7-26.5-1.2c-5.4-3.5-9-9.8-15.1-12c-15.1-5.6-24.3,12.5-32.3,22c-0.8,1.1-1.8,2-2.9,2.7c-1.7,0.9-3.5,1.3-5.4,1.1
	c-12.2-0.2-23.7-9.4-26.6-21.2c-0.2-0.7-0.3-1.4-0.4-2.1c0,0.1,0,0.1,0,0.2c-0.3,2.4-0.2,4.7,0.4,7c2.9,11.8,14.4,21,26.6,21.2
	c1.9,0.1,3.8-0.2,5.4-1.1c1.1-0.7,2.1-1.7,2.9-2.7c8-9.5,17.2-27.6,32.3-22c6.1,2.2,9.7,8.5,15.1,12c7.7,4.9,17.7,3.6,26.5,1.2
	c4.9-1.3,10-3,14.8-1.5c0.7,0.3,1.5,0.4,2.3,0.3c1-0.3,1.6-1.5,1.9-2.5c2.4-7.3,3.5-14.9,3.1-22.6
	C569.5,353.8,568.4,359.7,566.6,365.3z"/>
</svg>
