<?xml version="1.0" encoding="utf-8"?>
<!-- Generator: Adobe Illustrator 21.0.2, SVG Export Plug-In . SVG Version: 6.00 Build 0)  -->
<svg version="1.1" id="Layer_1" xmlns="http://www.w3.org/2000/svg" xmlns:xlink="http://www.w3.org/1999/xlink" x="0px" y="0px"
	 viewBox="0 0 400 400" style="enable-background:new 0 0 400 400;" xml:space="preserve">
<style type="text/css">
	.st0{fill:#FBDA57;}
	.st1{fill:#216A61;}
	.st2{opacity:0.2;enable-background:new    ;}
	.st3{fill:#F8BD9E;}
	.st4{fill:#162B29;}
</style>
<g>
	<circle class="st0" cx="200.1" cy="199.1" r="199.1"/>
</g>
<polygon class="st1" points="267.1,113 273.1,102.5 243.1,96.5 240.1,111.5 244.6,123.4 "/>
<polygon class="st2" points="267.1,113 273.1,102.5 243.1,96.5 240.1,111.5 244.6,123.4 "/>
<circle class="st3" cx="249.9" cy="67.3" r="39"/>
<polygon class="st3" points="216.9,67.3 185.5,119.7 231.9,146.7 255.9,91.2 "/>
<path class="st1" d="M213.9,128.7l-40.4-16.5c0,0-61.4,10.5-67.4,30s-6,176.8-6,176.8s-15,39,6,40.4c0,0-6,9,0,10.5s67.4,0,91.4,7.5
	s71.9,13.5,71.9,6v-13.5c0,0,10.5-10.5,4.5-28.5c-6-18-13.5-56.9-13.5-56.9s44.9-98.9,40.4-110.9s-59.3-49-59.3-49L213.9,128.7z"/>
<polygon class="st3" points="121,319 122.5,330.9 143.5,305.5 136,305.5 "/>
<path class="st1" d="M213.9,128.7l-43.4-10.5c0,0-9-7.5-9-16.5S175,79.3,184,70.3c1.6-1.6,3.7-2.5,6-2.5c8.8,0,19.6,11.5,19.6,11.5
	l-12,19.9l-0.6,0.9L213.9,128.7z"/>
<path class="st1" d="M247.5,110.9l25.6-8.4c0,0,8.2,32.2-0.7,33.7s-58.4-3-58.4-3L247.5,110.9z"/>
<path class="st4" d="M212,77.9c2.4-0.1,4-2.8,4.6-5.2c0.6-2.4,0.9-5.2,2.2-7.3c3.7-5.8,13.5-3.4,17.4-9.3c2.4-3.4,1.9-9.3,5.4-11.5
	c2.2-1.3,4.9-0.7,7.5,0.1c9.4,3.4,18.1,8.7,25.6,15.3l3.1-2.5l3.9,7.8c1.5-1.8,4.5-0.4,5.7,1.6s1.9,4.6,3.7,6.1
	c2.8,2.4,7.3,0.3,9.1-3s1.5-7.6,0.9-11.4c-1.5-9.6-4.8-18.9-9.4-27.4l3.6-2.1l-4.6-0.6l1.8-4h-4.8l1.9-3.4
	c-6.4,2.2-13.2-1.8-19.5-4.9c-10.3-5.1-22-7.5-33.4-5.7c-11.7,1.9-22,8.7-28.6,18.6c-4.9,7.8-7.8,19-5.2,28.3
	C204.9,65.5,214.8,66.8,212,77.9z"/>
<path class="st1" d="M115.1,136.2c0,0-9-1.5-15,10.5S49.1,254.5,71.6,284.5c22.5,30,43.4,39,43.4,39l4.5,1.5l22.5-24l-7.5-10.5
	c0,0,0-10.5-6-12c-6-1.5-6,3-7.5-3c-1.5-6,6-1.5-1.5-7.5c-7.5-6-1.5-9-1.5-9L115.1,136.2z"/>
<polygon class="st3" points="273.9,336.2 272.4,348.2 251.4,322.7 258.9,322.7 "/>
<path class="st1" d="M271.6,168.4c0,0,21-10.5,27,1.5c6,12,47.2,101.9,24.7,131.8c-22.5,30-43.4,39-43.4,39l-4.5,1.5l-22.5-24
	l7.5-10.5c0,0,0-10.5,6-12c6-1.5,6,3,7.5-3c1.5-6-6-1.5,1.5-7.5c7.5-6,1.5-9,1.5-9L271.6,168.4z"/>
<polygon class="st2" points="129.3,195.4 112.8,261.3 132.3,285.2 123.3,255.3 "/>
<path class="st2" d="M209.7,79.4l-12,19.9c-7.5-2.5-8.1-20.1-7.8-31.6C199,67.7,209.7,79.4,209.7,79.4z"/>
<g transform="translate(0.000000,640.000000) scale(0.100000,-0.100000)">
	<path class="st4" d="M2745.6,5735c-20.8,1.5-38.4,1.3-83-0.9c-47.6-2.4-64.7-2.1-89.9,1.5c-23.1,3.3-33.7,6.4-69.4,19.9
		c-20.4,7.8-25.5,9.6-34,12.1c-14.2,4.3-33.4,9.7-45.8,12.9c-23.1,5.8-46.9,9-82.4,11.1c-44.8,2.5-60.1,4.2-80.7,8.5l-4.6,1
		l-0.9-7.8c-2.1-19.9-2.1-47,0.1-57.4c1.2-5.7,2.1-7.5,8.2-15.6c5.4-7.2,5.5-7.3,6.1-11.5c0.4-2.4,1-7.5,1.5-11.5
		c1.8-16,6.1-37,13.3-62.3c4.6-16.8,6.4-21.9,9.7-27.3c15.3-26.1,57.5-46.4,103.2-49.9c22-1.6,36.4-0.4,50.3,4
		c25.3,8.4,46.1,25,68.6,55.4c9,12.1,11.4,16.3,18.1,31.9c5.5,12.7,7.9,17.5,12,23.4c5.5,8.2,7.6,8.8,22.5,5.8
		c9.3-1.8,9.4-1.9,11.4-3.7c4.9-4.6,8.2-14.1,10.6-30.4c2.7-18,4.8-27.1,9.1-41c10.5-32.7,26.4-54.5,51.2-69.8
		c35.5-22,81.9-28.6,119-16.9c13.2,4,23.5,9.4,33.1,16.9c12.3,9.6,21.3,21,29.7,37.6c3,6,4.9,10.5,12,27.4
		c7.2,17.4,10.6,24.7,13.3,28.3c2.2,3.1,6,5.8,10.9,7.8c4.9,2.1,6.3,3.1,9.4,7.6c9.6,13.6,21.1,41.9,21.9,53.9
		c0.3,4.5-0.7,8.2-2.8,10.2c-1.2,1-2.5,1.5-7.3,2.5c-6.4,1.3-24.3,3.6-32.2,3.9c-2.8,0.1-10.6,0.9-17.2,1.6
		c-9.6,1.2-13.3,1.8-17.8,3.1c-3.1,0.9-11.4,3.3-18.3,5.2c-6.9,1.9-15.9,4.5-20.1,5.5C2775.4,5730.9,2754.8,5734.2,2745.6,5735z
		 M2448.7,5757c21.4-5.7,45.7-16.8,58-26.4c8.1-6.3,13.9-13.3,16.9-20.1c7.8-18.7-0.7-44.5-27.7-83.7c-9.3-13.5-16.5-21.1-27.4-29.2
		c-17.8-13.2-38.7-19.6-63.8-19.9c-8.2-0.1-30.6,3.1-39.3,5.7c-7.6,2.2-17.4,5.7-22.5,8.1c-18.1,8.4-31.8,24.1-38.1,44.5
		c-2.2,7.2-4.8,22.2-6.4,36.7c-2.7,24.7-1.2,53.3,3.7,66.1c7,18.6,26.4,27,62.2,27c8.2,0,27.6-0.7,36.1-1.3c4.3-0.3,8.8-0.6,9.9-0.7
		C2415.4,5763.3,2442.7,5758.7,2448.7,5757z M2753.6,5712.5c42.2-10,59.6-16.9,72.1-28.6c10.9-10,13.5-21.7,9.6-42.8
		c-3.9-21-11.4-42.1-23.4-66.1c-7.2-14.4-13.3-22.2-23.1-30c-12.3-9.4-24-13.8-41.6-15c-15.4-1-34.3,0.4-47.8,3.6
		c-30.1,7.3-53.8,24.1-68.6,48.7c-7.3,12.4-14.5,32.8-19.8,56.8c-4.3,19.9-4.2,36.9,0.1,47.8c7.9,19.6,30.6,29.7,73.1,32.7
		c7,0.4,21.3,0.3,28-0.3C2719.3,5718.8,2745.2,5714.5,2753.6,5712.5z"/>
</g>
</svg>
