<?xml version="1.0" encoding="utf-8"?>
<!-- Generator: Adobe Illustrator 21.0.2, SVG Export Plug-In . SVG Version: 6.00 Build 0)  -->
<svg version="1.1" id="Layer_1" xmlns="http://www.w3.org/2000/svg" xmlns:xlink="http://www.w3.org/1999/xlink" x="0px" y="0px"
	 viewBox="0 0 800 800" style="enable-background:new 0 0 800 800;" xml:space="preserve">
<style type="text/css">
	.st0{fill:#162B29;}
	.st1{fill:#F8BD9E;}
	.st2{fill:#F1FFE7;}
	.st3{fill:#1D3557;}
	.st4{fill:#216A61;}
</style>
<g>
	<title>Layer 1</title>
	<path id="svg_51" class="st0" d="M712.8,554.3c-9.4,7.5-20.2,13-31.7,16.3c-32.3,9-65.5-0.2-97.7-9.2c-17.4-4.8-35.3-9.8-53-11.9
		c-28.4-3.4-54.9,0.8-76.7,12.3c-24.5,12.9-42.2,35.2-47.5,59.8c-0.7,3.1-1.1,6.3-1.3,9.4c2.4-1.5,4.8-2.9,7.3-4.3
		c25.6-15,61.5-28.9,87.2-10.1c9.9,7.2,16.2,19.2,17.4,32.9c1.3,14.7-3.5,29.2-12.9,38.9c-1.5,1.6-3.1,3.1-4.9,4.4
		c-18.9,14.9-48.5,15.5-69.1,0.4c-17.5-12.7-27.7-35.6-27.2-58.6c-15.1,9.3-29.7,19.5-43.8,30.3l-1.2-1.6
		c14.5-11.2,29.5-21.6,45.1-31.1c0.2-3.7,0.7-7.4,1.5-11.1c5.4-25.1,23.5-48,48.5-61.1c22.2-11.6,49.1-15.9,77.9-12.5
		c17.9,2.2,35.9,7.2,53.3,12c33.4,9.3,64.9,18,96.6,9.2c31.9-8.9,57.9-36.8,64.6-69.3c6.7-32.6-6.1-68.5-31.9-89.4l1.2-1.5
		c26.3,21.3,39.4,58,32.6,91.3C742.7,521.3,730,540.8,712.8,554.3L712.8,554.3z M404.7,633.3c-0.9,22.9,9,45.7,26.3,58.3
		c21.8,15.8,53.8,13.8,71.4-4.6c8.9-9.3,13.5-23.3,12.3-37.4c-1.1-13.1-7.2-24.6-16.6-31.5c-24.9-18.2-60-4.5-85.1,10.2
		C410.3,630,407.5,631.6,404.7,633.3L404.7,633.3z"/>
	<path class="st0" d="M572.7,454.2l-1.2-1.4c26.1-18.9,39.5-52,33.3-82.4c-6.2-30.3-31.7-56.7-63.5-65.4
		c-31.7-8.7-63.3-1.2-96.7,6.9c-17.5,4.2-35.5,8.5-53.5,10.2c-28.9,2.8-55.7-1.7-77.7-12.9c-24.8-12.6-42.5-34.1-47.5-57.5
		c-0.7-3.4-1.2-6.9-1.3-10.3c-15.4-9.2-30.3-19.1-44.6-29.6l1.2-1.5c13.9,10.3,28.4,20,43.3,28.8c-0.1-21.4,10.4-42.4,28.1-53.9
		c20.8-13.6,50.4-12.6,69.1,1.5c1.7,1.3,3.4,2.7,4.8,4.2c9.1,9.2,13.7,22.8,12.3,36.3c-1.4,12.7-7.9,23.7-17.9,30.2
		c-26,17-61.7,3.5-87-10.8c-2.4-1.3-4.9-2.8-7.2-4.1c0.1,3,0.6,5.9,1.2,8.7c2,9.4,6.1,18.6,12,26.8c0.3,0.6,0.6,1,1.1,1.5
		c8.3,11.3,19.7,20.9,33.4,27.9c21.6,10.9,48,15.4,76.5,12.7c17.7-1.6,35.8-6,53.2-10.1c32.3-7.7,65.7-15.8,97.8-6.9
		c11.4,3.3,22.2,8.5,31.4,15.7l0,0c17,12.9,29.3,31.2,33.4,51.2C613.1,401.1,599.4,434.9,572.7,454.2z M274.8,245.2
		c24.9,14.1,59.7,27.4,84.9,10.9c9.5-6.2,15.8-16.8,17.1-28.9c1.4-13.1-3-26.1-11.7-34.9c-17.3-17.4-49.4-19.9-71.3-5.5
		c-17.5,11.4-27.9,32.4-27.2,53.6l0,0C269.3,242,272,243.7,274.8,245.2z"/>
	<path class="st0" d="M405.6,370.8l-0.1,0c-0.2-0.8-0.6-1.7-1.1-2.4c0.1,0,0.4,0.1,0.5,0.2c-7.1-21.7-5.2-45.3,5.6-60.6
		c12.9-18,37.7-23,57.7-12.3c1.8,1,3.7,2.1,5.4,3.3c10.6,7.5,18.8,20.5,22,34.6c3,13.2,1.2,25.7-5,34.3c-16,22.6-49.9,15.9-75.5,6.5
		c-2.4-0.9-4.9-1.9-7.3-2.8c1.1,2.9,2.4,5.9,3.8,8.7c11.5,22.3,32.7,40.2,56.9,47.9c21.5,6.9,44.8,6.1,67.5-2.4
		c14.1-5.3,27.6-13.3,40.7-21c24.2-14.4,49.2-29.2,78.7-26.6c10.5,0.9,21.1,4.3,31.2,9.6l0,0c10.2,5.5,19.8,12.9,27.9,21.7
		c-0.3,0.2-0.5,0.4-0.7,0.6c-0.8-1.1-1.9-1.8-3.1-2.1c-15.5-15.8-35.4-26.3-55.2-28.1c-29-2.5-52.7,11.5-77.8,26.5
		c-13.1,7.8-26.7,15.8-40.9,21.1c-23,8.5-46.7,9.5-68.5,2.5c-24.6-7.9-46.4-26.2-58.1-49.1C408.4,377.7,406.9,374.3,405.6,370.8z
		 M415.4,372.6c25.1,9.3,58.4,15.8,73.8-6c5.9-8.2,7.5-20.2,4.7-32.8c-3.1-13.6-11-26-21.2-33.2c-20-14.2-47.3-10.3-60.8,8.7
		c-10.7,15.1-12.5,38.6-5.1,60.1C409.7,370.5,412.5,371.5,415.4,372.6z"/>
	<path class="st0" d="M221.2,213.2l1.1-1.6c-27.4-18.7-43.2-53.4-39.2-86.4c4-33,27.6-63,58.6-74.4c31-11.4,63.1-5.4,97,1.1
		c17.7,3.3,36.1,6.8,54.1,7.5c29,1.1,55.4-5.4,76.6-18.9c16.8-10.7,29.3-24,36.6-40.5c-0.8-0.2-1.6-0.5-2.4-0.7
		c-7.4,15.6-19.6,29.5-35.2,39.4c-20.8,13.2-46.8,19.7-75.4,18.6c-17.8-0.6-36.2-4.1-53.8-7.5c-32.8-6.2-66.7-12.7-98.1-1
		c-11.2,4.2-21.5,10.6-30.2,18.9c-16,15-26.9,35.5-29.6,57.3C177,158.6,193.1,194.1,221.2,213.2z"/>
</g>
<path class="st0" d="M213.6,567.7c9.5-7.6,20.4-13.3,32-16.7c32.7-9.3,66.4-0.3,99.1,8.4c17.6,4.7,35.9,9.6,53.9,11.6
	c28.8,3.2,55.7-1.3,77.7-13c24.7-13.2,42.5-35.9,47.6-60.7c0.6-3.1,1.1-6.3,1.3-9.5c-2.4,1.5-4.9,3-7.3,4.4
	c-25.8,15.3-62.1,29.7-88.3,10.9c-10.1-7.2-16.6-19.3-17.9-33c-1.4-14.8,3.3-29.5,12.7-39.4c1.5-1.6,3.2-3.1,4.9-4.5
	c19-15.2,49-16,70.1-1c17.8,12.7,28.4,35.7,28.1,58.9c15.2-9.6,30-19.9,44.2-31l1.2,1.6c-14.6,11.4-29.8,22-45.5,31.8
	c-0.2,3.8-0.6,7.5-1.4,11.2c-5.2,25.4-23.4,48.6-48.7,62.1c-22.4,11.9-49.6,16.5-78.9,13.2c-18.1-2-36.5-6.9-54.2-11.7
	c-33.9-9.1-65.9-17.6-98-8.5c-32.3,9.2-58.4,37.6-64.9,70.5c-6.5,32.9,6.8,69.1,33.1,90l-1.2,1.6c-26.9-21.3-40.5-58.3-33.8-91.9
	C183.7,601.3,196.3,581.5,213.6,567.7z M525.4,485.4c0.8-23.1-9.5-46-27.2-58.6c-22.2-15.8-54.7-13.5-72.4,5.2
	c-9,9.5-13.5,23.6-12.2,37.8c1.3,13.2,7.5,24.7,17.1,31.6c25.4,18.1,60.8,4,86.1-11C519.8,488.9,522.6,487.2,525.4,485.4
	L525.4,485.4z"/>
<ellipse class="st0" cx="325.5" cy="725" rx="278.5" ry="13"/>
<ellipse class="st0" cx="315" cy="764" rx="99" ry="13"/>
<path class="st1" d="M232.5,452.5v8c0,0-9,41.8,5,40c23-3,6-37,6-37v-7L232.5,452.5z"/>
<polygon class="st1" points="344.5,677.5 353.5,702.5 375.5,694.5 365.5,671.5 "/>
<polygon class="st1" points="289.5,702.5 283.5,724.5 306.5,731.5 307.5,708.5 "/>
<path class="st0" d="M269.5,450.5l-2,11c0,0-1,8,0,13s73,212,73,212l31-12l-40-131l-5-101L269.5,450.5z"/>
<path class="st0" d="M308.5,448.5l-4,148c0,0-9,10-7,17s-5,65-5,65l-6,29l26,8c0,0,5-26,9-29s27-93,27-99s17-139,17-139l-42-17
	L308.5,448.5z"/>
<path class="st0" d="M355.5,686.5c0,0-11-12-17,0c-4.5,8.6-9.5,17-15,25c0,0-32,19,0,24c0,0,18,1,27-5s33-15,33-17s-6-31.4-12-28.2
	S355.5,686.5,355.5,686.5z"/>
<path class="st0" d="M300.5,719.5c0,0-9-13-17-4s-18,35-18,35s-18,27,10,26s30-11,30-11s4-26,4-27s-2-11.3-2-11.3L300.5,719.5z"/>
<circle class="st1" cx="294" cy="215" r="28"/>
<path class="st1" d="M279.5,232.5l4,32l12,30l26-31v-15c0,0-8-12-6-22L279.5,232.5z"/>
<path class="st2" d="M293.5,271.5l-14-6l-15,177l3,11c0,0,8,5,33,1s66-1,66-1l3-91l-49-107L293.5,271.5z"/>
<path class="st0" d="M268.5,446.5c0,0,19-165,18-168s-18-11.1-18-11.1s-29,19.1-28,26.1s19,155,19,155L268.5,446.5z"/>
<path class="st0" d="M344.5,434.5c0,0-30-117-31-143s-1-29-1-29s46-16,62,0l3,84c0,0,5,36,3,47c-1.4,7.2-3.4,14.2-6,21
	c0,0,11,11,1,14s-17-2-21,3S344.5,434.5,344.5,434.5z"/>
<path class="st0" d="M247.5,287.5c0,0-12,0-11,14s0,79,0,79s-9,55-6,59s-1,17-1,17l18,4c0,0,2-14,6-15s10-30,10-30L247.5,287.5z"/>
<path class="st1" d="M382.5,410.5l-4.6,8.3c0,0-31.5,25.1-16,34.4s30.5-24.7,30.5-24.7l5-9L382.5,410.5z"/>
<path class="st0" d="M360.5,260.5l14,2c0,0,16,11,17,17s33,61,33,61c1.9,4.1,2.9,8.5,3,13c0,7-11,60-17,61s-10,11-10,11l-21-13
	c0.1-3,0.4-6,1-9c1-5,5-15,5-15l6-21c-1.9-1.4-3-3.6-3-6c0-4-17-25-17-25L360.5,260.5z"/>
<path class="st2" d="M290.4,281.7c0,0-25.9-7.2-23.9-12.2s4-6,4-6s3-8,6-8s5.6-2.5,5.6-2.5l11.4,18.5L290.4,281.7z"/>
<path class="st2" d="M318.5,243c0,0,10-2.5,14,0.5s7,3,8,5s14,4,10,7s-57,16-57,16l25-18V243z"/>
<path class="st0" d="M321.6,185.2c-4.5-7.3-11.5-12.6-19.6-15l-6,4.8l2.3-5.6c-2-0.3-3.9-0.4-5.9-0.3L287,176l2.2-6.7
	c-9.5,1.2-18,6.3-23.6,14c-6.9,9.9-6.4,23.7,0.3,33.7c1.9-5.7,2.5-11,4.3-16.8c1.5,0.2,2.9,0.2,4.4,0l2.3-5.3l0.6,5
	c7-0.6,17.4-1.9,24-3.2L301,193l3.9,3.2c2-0.5,3.2-0.9,3.1-1.2c4.9,8,9.8,13,14.8,21C324.6,204.7,327.9,195.4,321.6,185.2z"/>
<ellipse class="st1" cx="320" cy="211" rx="2" ry="4"/>
<path class="st3" d="M151.2,724.7l-1.1-0.4c-0.2-0.1-23.7-9.1-34.7-29.5s-5.6-44.9-5.6-45.2l0.3-1.1l1.1,0.4
	c0.2,0.1,23.7,9.1,34.7,29.5s5.6,44.9,5.6,45.2L151.2,724.7z M117.2,693.9c9.3,17.2,27.8,26.1,32.5,28.1c0.9-5,3.7-25.4-5.6-42.6
	c-9.3-17.2-27.8-26.1-32.5-28.1C110.7,656.3,107.9,676.6,117.2,693.9z"/>
<path class="st4" d="M123.8,687.7c19.8,11.9,27.4,35.5,27.4,35.5s-24.4,4.3-44.2-7.5s-27.4-35.5-27.4-35.5S104.1,675.8,123.8,687.7z
	"/>
<rect x="199" y="706" class="st4" width="19" height="15"/>
<rect x="356" y="750" class="st4" width="19" height="15"/>
</svg>
